<?xml version="1.0" encoding="UTF-8"?>
<!DOCTYPE svg PUBLIC "-//W3C//DTD SVG 1.1//EN" "http://www.w3.org/Graphics/SVG/1.1/DTD/svg11.dtd">
<!-- Creator: CorelDRAW 2017 -->
<svg xmlns="http://www.w3.org/2000/svg" xml:space="preserve" width="0.274949in" height="0.308in" version="1.1" style="shape-rendering:geometricPrecision; text-rendering:geometricPrecision; image-rendering:optimizeQuality; fill-rule:evenodd; clip-rule:evenodd"
viewBox="0 0 66.89 74.93"
 xmlns:xlink="http://www.w3.org/1999/xlink">
 <defs>
  <style type="text/css">
   <![CDATA[
    .fil0 {fill:black}
    .fil2 {fill:#6ED3FF}
    .fil1 {fill:#FFCA12}
   ]]>
  </style>
 </defs>
 <g id="Layer_x0020_1">
  <metadata id="CorelCorpID_0Corel-Layer"/>
  <g id="_1778405836432">
   <path class="fil0" d="M15.02 0l-3 0c-1.06,0.5 -5.96,0.62 -9.53,5.77 -2.79,4.03 -2.47,7.22 -2.48,12.81 -0,5.69 0.38,8.47 3.28,12.01 3.73,4.54 10.79,6.1 16.64,3.17 0.84,-0.42 1.66,-0.98 2.3,-1.5 0.3,-0.24 0.7,-0.66 0.97,-0.93 4.05,-3.98 4.06,-7.8 4.04,-13.04 -0.01,-5.52 0.27,-8.6 -2.56,-12.61 -1.61,-2.28 -3.85,-3.94 -6.52,-4.89 -0.89,-0.32 -2.59,-0.54 -3.15,-0.79zm51.87 0l-20.85 0 0 3.11 15.74 0.02c-0.34,0.6 -4.9,5.49 -5.64,6.4l-17.29 19.44c-0.6,0.67 -1.28,1.58 -1.9,2.21l-3.88 4.31c-1.29,1.37 -4.46,5.22 -5.7,6.45l-8.66 9.78c-0.33,0.41 -0.65,0.65 -0.98,1.07 -2.61,3.28 -8.05,8.72 -10.53,11.87 -0.92,1.17 -3.78,4.12 -4.81,5.43 -0.37,0.47 -1.68,1.73 -1.94,2.22 0.27,0.51 0.66,0.64 1.09,1.03 0.52,0.47 0.57,0.66 1.17,1.01l6.66 -7.37c0.4,-0.47 0.45,-0.57 0.96,-1.09l15.21 -17.13c1.35,-1.37 5.43,-6.32 6.66,-7.54l4.76 -5.34c0.42,-0.4 0.52,-0.62 0.88,-1.03 0.4,-0.45 0.61,-0.62 0.97,-1.08l24.95 -27.96 -0 15.01 3.13 0.05 0 -20.85zm-15.02 74.93l3 0c1.06,-0.5 5.96,-0.62 9.53,-5.77 2.77,-4.01 2.46,-7.25 2.48,-12.81 0.02,-5.68 -0.39,-8.49 -3.28,-12.01 -3.75,-4.55 -10.79,-6.1 -16.64,-3.17 -3.21,1.61 -5.87,4.87 -6.82,8.41 -0.64,2.39 -0.52,4.54 -0.51,7.06 0.02,5.42 -0.24,8.71 2.56,12.61 0.99,1.37 2.37,2.75 3.94,3.67 3.18,1.87 4.52,1.46 5.74,2.01zm0.32 -32.11c-3.77,0.43 -6.3,2.49 -7.75,4.75 -2.12,3.31 -1.68,6.5 -1.68,10.82 0,4.89 0.2,6.8 2.62,9.87 1.87,2.38 5.68,3.84 9.14,3.46 3.74,-0.42 6.2,-2.64 7.63,-4.83 1.97,-3.02 1.62,-6.83 1.62,-10.85 0,-5.01 -0.12,-6.63 -2.67,-9.8 -1.51,-1.89 -5.1,-3.86 -8.91,-3.43zm-40.2 -39.56c-3.55,0.55 -6.09,2.78 -7.41,5.04 -1.92,3.28 -1.45,6.93 -1.45,11.01 0,4.84 0.38,6.74 2.86,9.61 1.96,2.27 5.78,3.62 9.17,3.13 3.58,-0.52 6.09,-2.69 7.47,-4.97 1.97,-3.27 1.51,-6.8 1.51,-10.99 0,-4.75 -0.46,-6.89 -2.82,-9.68 -1.95,-2.3 -5.89,-3.69 -9.32,-3.16z"/>
   <path class="fil1" d="M12.11 6.56c-2.53,0.6 -4.24,2.14 -5.13,4.15 -0.99,2.24 -0.63,5.96 -0.63,8.61 0,3.79 0.02,4.88 1.95,7.29 1.4,1.74 4.32,2.66 6.81,2.17 2.46,-0.49 4.22,-2.16 5.13,-4.08 0.99,-2.09 0.68,-6.05 0.68,-8.6 0,-3.79 0.02,-4.92 -1.91,-7.36 -1.47,-1.85 -4.54,-2.74 -6.89,-2.18z"/>
   <path class="fil2" d="M51.63 46.22c-1.62,0.42 -1.98,0.72 -3.07,1.53 -3.28,2.44 -2.58,7.54 -2.58,11.38 0,4.23 0.84,7.67 4.81,9 1.36,0.46 2.76,0.59 4.19,0.23 2.35,-0.6 4.16,-2.27 4.97,-4.23 0.94,-2.26 0.59,-5.99 0.59,-8.65 0,-3.46 -0.26,-5.18 -2.02,-7.23 -1.47,-1.71 -4.44,-2.66 -6.9,-2.02z"/>
  </g>
 </g>
</svg>
