<?xml version="1.0" encoding="UTF-8"?>
<!DOCTYPE svg PUBLIC "-//W3C//DTD SVG 1.1//EN" "http://www.w3.org/Graphics/SVG/1.1/DTD/svg11.dtd">
<!-- Creator: CorelDRAW 2017 -->
<svg xmlns="http://www.w3.org/2000/svg" xml:space="preserve" width="0.137319in" height="0.125543in" version="1.1" style="shape-rendering:geometricPrecision; text-rendering:geometricPrecision; image-rendering:optimizeQuality; fill-rule:evenodd; clip-rule:evenodd"
viewBox="0 0 2.34 2.14"
 xmlns:xlink="http://www.w3.org/1999/xlink">
 <defs>
  <style type="text/css">
   <![CDATA[
    .fil0 {fill:silver}
   ]]>
  </style>
 </defs>
 <g id="Layer_x0020_1">
  <metadata id="CorelCorpID_0Corel-Layer"/>
  <path class="fil0" d="M0.9 0.96c0.26,0 0.48,-0.21 0.48,-0.48 0,-0.26 -0.21,-0.48 -0.48,-0.48 -0.26,0 -0.48,0.21 -0.48,0.48 0,0.26 0.21,0.48 0.48,0.48zm0 0.22c-0.5,0 -0.9,0.4 -0.9,0.9 0,0.03 0.03,0.06 0.06,0.06 0.03,0 0.06,-0.03 0.06,-0.06 0,-0.43 0.35,-0.79 0.79,-0.79 0.43,0 0.79,0.35 0.79,0.79 0,0.03 0.03,0.06 0.06,0.06 0.03,0 0.06,-0.03 0.06,-0.06 0,-0.5 -0.4,-0.9 -0.9,-0.9zm0 -1.07c0.2,0 0.36,0.16 0.36,0.36 0,0.2 -0.16,0.36 -0.36,0.36 -0.2,0 -0.36,-0.16 -0.36,-0.36 0,-0.2 0.16,-0.36 0.36,-0.36z"/>
  <polygon class="fil0" points="1.9,0 2.02,0 2.02,0.32 2.34,0.32 2.34,0.43 2.02,0.43 2.02,0.75 1.9,0.75 1.9,0.43 1.58,0.43 1.58,0.32 1.9,0.32 "/>
 </g>
</svg>
