<?xml version="1.0" encoding="iso-8859-1"?>
<!-- Generator: Adobe Illustrator 19.0.0, SVG Export Plug-In . SVG Version: 6.00 Build 0)  -->
<svg version="1.1" id="Layer_1" xmlns="http://www.w3.org/2000/svg" xmlns:xlink="http://www.w3.org/1999/xlink" x="0px" y="0px"
	 viewBox="0 0 512 512" style="enable-background:new 0 0 512 512;" xml:space="preserve">
<path style="fill:#8CC63F;" d="M223.979,7.837h64.042c96.293,0,175.321,71.053,183.435,168.229h-63.355L223.979,7.837z"/>
<path style="fill:#009245;" d="M50.119,111.905C79.9,50.317,142.975,7.837,215.974,7.837c99.004,0,179.758,78.142,183.95,176.114
	l-47.861,16.012l-168.11-8.005L50.119,111.905z"/>
<g>
	<path style="fill:#39B54A;" d="M175.947,23.848c98.137,0,178.294,76.788,183.777,173.552l40.199-13.449
		C395.731,85.978,314.978,7.837,215.974,7.837c-31.984,0-62.061,8.16-88.269,22.504C143.092,26.171,159.24,23.848,175.947,23.848z"
		/>
	<polygon style="fill:#39B54A;" points="175.947,183.952 272.011,95.894 344.058,207.968 304.032,247.995 272.011,231.984 
		215.974,264.005 	"/>
</g>
<polygon style="fill:#8CC63F;" points="272.011,95.894 175.947,183.952 176.405,184.868 256,111.905 328.048,223.979 
	344.058,207.968 "/>
<path style="fill:#006837;" d="M304.032,247.995l-32.021-16.011l-56.037,32.021l7.478,97.216c0.351,4.56,1.085,9.083,2.194,13.52
	l8.102,23.366c3.087,8.9,13.944,12.221,21.481,6.568l10.108-7.581c4.202-3.15,6.674-8.096,6.674-13.348v-47.695L304.032,247.995z"/>
<path style="fill:#39B54A;" d="M191.958,456.131L191.958,456.131c13.264,0,24.016,10.752,24.016,24.016v24.016h80.053v-32.021
	c0-8.842,7.168-16.011,16.011-16.011l0,0"/>
<g>
	<path style="fill:#8CC63F;" d="M288.021,456.098c-8.842,0-15.825,7.201-15.825,16.044v32.021h24.033v-32.021
		c0-8.843,6.966-16.044,15.808-16.044H288.021z"/>
	<path style="fill:#8CC63F;" d="M239.989,408.101L239.989,408.101c17.685,0,32.021-14.336,32.021-32.021v-26.089
		c0-96.121,77.921-174.043,174.043-174.043h58.11v18.83c-8.842,0-16.011,7.168-16.011,16.011v16.366
		c0,115.086-82.092,213.974-192.126,233.49l-48.032,3.492L239.989,408.101z"/>
</g>
<path style="fill:#39B54A;" d="M264.106,440.121c17.685,0,32.122-14.337,32.122-32.021v-26.089
	c0-96.121,77.72-173.554,173.841-173.554h18.368c1.336-7.314,7.85-13.68,15.726-13.68v-18.712h-58.11
	c-96.121,0-173.857,77.803-173.857,173.924v26.089c0,17.685-14.429,32.021-32.114,32.021l7.959,56.037l19.269-1.399L264.106,440.121
	z"/>
<path style="fill:#009245;" d="M262.524,464.048C131.33,467.645,23.848,362.366,23.848,231.984v-80.053v-8.005
	c0-8.842-7.168-16.011-16.011-16.011v-16.011h14.287c111.481,0,201.854,90.373,201.854,201.854v46.309
	c0,50.357,38.751,91.993,88.058,96.063"/>
<path style="fill:#8CC63F;" d="M223.086,360.069v-46.308c0-111.481-89.48-201.433-200.962-201.433H7.837v0.4
	c103.169,8.987,183.902,95.533,183.902,201.033v46.308c0,50.357,38.861,91.993,88.167,96.063l-44.237,7.081
	c8.806,0.762,17.767,1.083,26.828,0.835l49.08-7.915C262.27,452.061,223.086,410.425,223.086,360.069z"/>
<g>
	<path style="fill:#FFFFFF;" d="M143.105,86.332l-8.955-12.898c24.072-16.618,52.364-25.401,81.621-25.401v15.673
		C189.649,63.705,164.548,71.53,143.105,86.332z"/>
	<path style="fill:#FFFFFF;" d="M118.183,108.972l-11.945-10.148c5.17-6.085,10.886-11.781,16.987-16.927l10.106,11.981
		C127.891,98.466,122.794,103.545,118.183,108.972z"/>
</g>
<path d="M477.938,168.11c-5.862-44.354-26.959-85.174-59.998-115.727C382.527,19.635,336.426,1.589,288.113,1.567
	c0,0-70.84-1.567-72.14-1.567c-36.779,0-72.52,10.434-103.359,30.176c-29.003,18.567-52.412,44.494-67.93,75.109
	c-7.414-0.796-14.938-1.216-22.56-1.216H0v31.684h7.837c4.507,0,8.173,3.667,8.173,8.174v88.058
	c0,65.35,25.8,126.441,72.648,172.022c31.718,30.86,70.316,51.859,112.25,61.653c4.353,3.338,7.229,8.875,7.229,14.489V512h95.726
	v-39.858c0-2.109,0.809-4.027,2.125-5.478c46.343-10.001,88.796-33.905,122.466-69.545c43.551-46.101,67.536-106.462,67.536-169.964
	v-16.367c0-4.507,3.667-8.173,8.173-8.173H512V168.11H477.938z M407.3,63.891c29.83,27.585,49.051,64.286,54.806,104.219h-16.053
	c-13.428,0-26.516,1.475-39.123,4.251c-1.245-12.295-3.664-24.339-7.178-36.002h33.358v-15.673h-38.838
	c-1.124-2.816-2.326-5.601-3.584-8.359h17.344V96.653h-25.386c-1.619-2.825-3.309-5.614-5.074-8.359h6.428V72.62h-17.648
	c-5.334-6.705-11.146-13.094-17.418-19.118c-15.708-15.087-33.577-27.211-52.879-36.077C337.498,19.298,376.738,35.629,407.3,63.891
	z M121.065,43.376c28.31-18.123,61.13-27.702,94.908-27.702c45.753,0,89.115,17.449,122.1,49.132
	c22.835,21.935,39.05,49.098,47.487,78.868h-32.908v15.673h36.584c1.051,5.633,1.84,11.337,2.342,17.1
	c-16.002,5.034-31.052,12.229-44.818,21.234L273.572,83.832l-58.846,53.942v-49.48h-15.673v63.739h0.118l-15.792,14.475v-21.789
	h-15.673v18.275c-3.048-2.943-6.184-5.796-9.404-8.554v-34.799h-15.673v22.609c-23.977-16.897-51.639-28.892-81.522-34.534
	C75.326,81.621,95.902,59.484,121.065,43.376z M264.73,335.935c-0.356,4.64-0.557,9.325-0.557,14.056v26.089
	c0,12.855-10.081,23.399-22.754,24.142c-6.274-12.333-9.604-26.048-9.604-40.153v-0.101h16.347v-15.673h-16.348V313.76
	c0-16.074-1.829-31.725-5.269-46.771l45.711-26.12l21.03,10.515c-13.28,20.502-22.531,43.838-26.666,68.877h-18.457v15.673h16.567
	V335.935z M271.763,223.099l-49.438,28.251c-7.669-24.548-19.73-47.175-35.271-66.948l73.488-67.364l-12.271,73.631l15.461,2.577
	l12.67-76.028l57.602,89.601c-11.753,9.218-22.34,19.855-31.517,31.641L271.763,223.099z M99.588,392.773
	C55.8,350.169,31.684,293.067,31.684,231.985v-88.058c0-10.405-6.699-19.275-16.01-22.525v-1.66h6.451
	c106.982,0,194.018,87.036,194.018,194.019v46.308c0,26.256,9.806,51.364,27.611,70.698c6.274,6.813,13.338,12.683,20.99,17.528
	h-12.322c-33.432,0-60.63-27.199-60.63-60.631v-11.546c0-12.425-4.757-23.759-12.544-32.28l14.25-14.25l-11.083-11.082
	l-15.578,15.578c-6.819-3.737-14.638-5.866-22.947-5.866c-13.314,0-24.146-10.831-24.146-24.146v-4.797l33.728-33.729
	l-11.083-11.082l-22.712,22.712c-0.678-16.491-7.411-31.899-19.151-43.639l-19.1-19.1l-11.083,11.082l15.328,15.331h-21.41v15.673
	h34.004c3.79,7.124,5.802,15.113,5.802,23.412v24.136c0,5.764,1.241,11.241,3.454,16.192H95.608v15.673h24.033v-0.31
	c6.721,5.176,15.128,8.265,24.247,8.265c12.315,0,23.034,6.945,28.458,17.123h-37.031v15.673h40.802v10.978
	c0,26.932,14.037,50.632,35.167,64.215C169.47,443.477,130.934,423.27,99.588,392.773z M288.19,472.142v24.184h-64.379v-16.179
	c0-3.695-0.639-7.242-1.801-10.544c11.145,1.566,22.472,2.372,33.925,2.372c2.263,0,4.534-0.031,6.805-0.093
	c8.61-0.236,17.141-0.953,25.569-2.105C288.231,470.554,288.19,471.344,288.19,472.142z M496.327,188.263
	c-9.311,3.249-16.01,12.12-16.01,22.525v16.367c0,59.483-22.464,116.022-63.256,159.201
	c-28.543,30.215-63.826,51.408-102.436,62.059l-2.017-0.1c-7.572-0.631-14.949-2.259-21.993-4.765
	c26.741-10.025,45.018-36.172,45.257-66.863h31.41v-15.673h-31.398v-0.944c0-8.921,7.258-16.179,16.179-16.179
	c17.564,0,31.852-14.289,31.852-31.853v-8.495h24.118v-15.673h-23.067c3.621-13.813,16.207-24.033,31.14-24.033v-15.673
	c-9.069,0-17.555,2.535-24.791,6.934v-15.293h-15.673v30.705c-4.678,7.392-7.399,16.141-7.399,25.516v16.01
	c0,8.921-7.258,16.179-16.178,16.179c-0.153,0-0.303,0.009-0.456,0.011v-31.998h-15.673v36.389
	c-9.4,5.544-15.725,15.771-15.725,27.452v16.011c0,29.394-22.684,53.573-51.463,55.99c-4.829-3.482-9.351-7.454-13.464-11.92
	c-1.673-1.816-3.262-3.692-4.767-5.623c16.887-4.628,29.33-20.111,29.33-38.447v-26.089c0-91.646,74.56-166.206,166.206-166.206
	h50.274V188.263z"/>
<g>
</g>
<g>
</g>
<g>
</g>
<g>
</g>
<g>
</g>
<g>
</g>
<g>
</g>
<g>
</g>
<g>
</g>
<g>
</g>
<g>
</g>
<g>
</g>
<g>
</g>
<g>
</g>
<g>
</g>
</svg>
