<?xml version="1.0" encoding="UTF-8"?>
<!DOCTYPE svg PUBLIC "-//W3C//DTD SVG 1.1//EN" "http://www.w3.org/Graphics/SVG/1.1/DTD/svg11.dtd">
<!-- Creator: CorelDRAW 2017 -->
<svg xmlns="http://www.w3.org/2000/svg" xml:space="preserve" width="0.151543in" height="0.125543in" version="1.1" style="shape-rendering:geometricPrecision; text-rendering:geometricPrecision; image-rendering:optimizeQuality; fill-rule:evenodd; clip-rule:evenodd"
viewBox="0 0 2.4 1.99"
 xmlns:xlink="http://www.w3.org/1999/xlink">
 <defs>
  <style type="text/css">
   <![CDATA[
    .fil0 {fill:silver}
   ]]>
  </style>
 </defs>
 <g id="Layer_x0020_1">
  <metadata id="CorelCorpID_0Corel-Layer"/>
  <path class="fil0" d="M2.23 0l-1.12 0c-0.1,0 -0.18,0.08 -0.18,0.18l0 0.34 -0.75 0c-0.1,0 -0.18,0.08 -0.18,0.18l0 0.72c0,0.1 0.08,0.18 0.18,0.18l0.13 0 0 0.39 0.48 -0.39 0.51 0c0.1,0 0.18,-0.08 0.18,-0.18l0 -0.34 0.13 0 0.48 0.39 0 -0.39 0.13 0c0.1,0 0.18,-0.08 0.18,-0.18l0 -0.72c0,-0.1 -0.08,-0.18 -0.18,-0.18zm-0.9 1.42c0,0.02 -0.01,0.03 -0.03,0.03l-0.56 0 -0.28 0.23 0 -0.23 -0.28 0c-0.01,0 -0.03,-0.01 -0.03,-0.03l0 -0.72c0,-0.02 0.01,-0.03 0.03,-0.03l0.75 0 0 0.24c0,0.1 0.08,0.18 0.18,0.18l0.22 0 0 0.34 0 0zm0.93 -0.52c0,0.02 -0.01,0.03 -0.03,0.03l-0.28 0 0 0.23 -0.28 -0.23 -0.56 0c-0.01,0 -0.03,-0.01 -0.03,-0.03l0 -0.72c0,-0.02 0.01,-0.03 0.03,-0.03l1.12 0c0.01,0 0.03,0.01 0.03,0.03l0 0.72z"/>
 </g>
</svg>
