<?xml version="1.0" encoding="UTF-8"?>
<!DOCTYPE svg PUBLIC "-//W3C//DTD SVG 1.1//EN" "http://www.w3.org/Graphics/SVG/1.1/DTD/svg11.dtd">
<!-- Creator: CorelDRAW 2017 -->
<svg xmlns="http://www.w3.org/2000/svg" xml:space="preserve" width="0.260717in" height="0.20763in" version="1.1" style="shape-rendering:geometricPrecision; text-rendering:geometricPrecision; image-rendering:optimizeQuality; fill-rule:evenodd; clip-rule:evenodd"
viewBox="0 0 40.37 32.15"
 xmlns:xlink="http://www.w3.org/1999/xlink">
 <defs>
  <style type="text/css">
   <![CDATA[
    .fil0 {fill:#A9ABAE}
   ]]>
  </style>
 </defs>
 <g id="Layer_x0020_1">
  <metadata id="CorelCorpID_0Corel-Layer"/>
  <path class="fil0" d="M33.98 17.19c0.16,-0.7 0.24,-1.41 0.24,-2.14 0,-5.28 -4.3,-9.58 -9.58,-9.58 -4.27,0 -8.04,2.87 -9.21,6.92 -0.35,-0.05 -0.7,-0.08 -1.06,-0.08 -3.55,0 -6.48,2.72 -6.81,6.19 -3.47,0.33 -6.19,3.26 -6.19,6.81 0,3.77 3.07,6.84 6.84,6.84l24.68 0c4.13,0 7.49,-3.39 7.49,-7.52 0,-3.78 -2.75,-6.9 -6.4,-7.44zm-29.39 -1.94c-0.27,-0.27 -0.7,-0.27 -0.97,0l-0.68 0.68c-0.27,0.27 -0.27,0.7 0,0.97 0.13,0.13 0.31,0.2 0.48,0.2 0.17,0 0.35,-0.07 0.48,-0.2l0.68 -0.68c0.27,-0.27 0.27,-0.7 0,-0.97zm-2.54 -6.37l-1.37 0c-0.38,0 -0.68,0.31 -0.68,0.68 0,0.38 0.31,0.68 0.68,0.68l1.37 0c0.38,0 0.68,-0.31 0.68,-0.68 0,-0.38 -0.31,-0.68 -0.68,-0.68zm16.22 -5.26c-0.27,-0.27 -0.7,-0.27 -0.97,0l-0.68 0.68c-0.27,0.27 -0.27,0.7 0,0.97 0.13,0.13 0.31,0.2 0.48,0.2 0.17,0 0.35,-0.07 0.48,-0.2l0.68 -0.68c0.27,-0.27 0.27,-0.7 0,-0.97zm-7.25 -3.62c-0.38,0 -0.68,0.31 -0.68,0.68l0 1.37c0,0.38 0.31,0.68 0.68,0.68 0.38,0 0.68,-0.31 0.68,-0.68l0 -1.37c0,-0.38 -0.31,-0.68 -0.68,-0.68zm-5.75 3.62l-0.68 -0.68c-0.27,-0.27 -0.7,-0.27 -0.97,0 -0.27,0.27 -0.27,0.7 0,0.97l0.68 0.68c0.13,0.13 0.31,0.2 0.48,0.2 0.17,0 0.35,-0.07 0.48,-0.2 0.27,-0.27 0.27,-0.7 -0,-0.97zm10.76 4.48c-0.9,-2.39 -3.21,-4 -5.77,-4 -3.4,0 -6.16,2.76 -6.16,6.16 0,1.84 0.81,3.56 2.23,4.74 0.13,0.11 0.28,0.16 0.44,0.16 0.2,0 0.39,-0.08 0.53,-0.25 0.24,-0.29 0.2,-0.72 -0.09,-0.96 -1.1,-0.91 -1.73,-2.26 -1.73,-3.69 0,-2.64 2.15,-4.79 4.79,-4.79 1.99,0 3.79,1.25 4.49,3.11 0.13,0.35 0.53,0.53 0.88,0.4 0.35,-0.13 0.53,-0.53 0.4,-0.88zm16.85 22.68l-24.67 0c-3.02,0 -5.47,-2.45 -5.47,-5.47 0,-3.02 2.46,-5.47 5.47,-5.47 0.38,0 0.68,-0.31 0.68,-0.68 0,-3.02 2.46,-5.47 5.47,-5.47 0.47,0 0.94,0.06 1.39,0.18 0.18,0.05 0.37,0.02 0.53,-0.08 0.16,-0.1 0.27,-0.26 0.31,-0.44 0.8,-3.77 4.18,-6.5 8.03,-6.5 4.53,0 8.21,3.68 8.21,8.21 0,0.87 -0.13,1.72 -0.4,2.53 -0.07,0.2 -0.03,0.43 0.09,0.6 0.12,0.18 0.32,0.28 0.54,0.29 3.33,0.12 5.93,2.82 5.93,6.15 0,3.38 -2.75,6.15 -6.12,6.15z"/>
 </g>
</svg>
