<?xml version="1.0" encoding="UTF-8"?>
<!DOCTYPE svg PUBLIC "-//W3C//DTD SVG 1.1//EN" "http://www.w3.org/Graphics/SVG/1.1/DTD/svg11.dtd">
<!-- Creator: CorelDRAW 2017 -->
<svg xmlns="http://www.w3.org/2000/svg" xml:space="preserve" width="0.355768in" height="0.355772in" version="1.1" style="shape-rendering:geometricPrecision; text-rendering:geometricPrecision; image-rendering:optimizeQuality; fill-rule:evenodd; clip-rule:evenodd"
viewBox="0 0 32.6 32.6"
 xmlns:xlink="http://www.w3.org/1999/xlink">
 <defs>
  <style type="text/css">
   <![CDATA[
    .fil2 {fill:black}
    .fil1 {fill:#6ED3FF}
    .fil0 {fill:#FFCA12}
   ]]>
  </style>
 </defs>
 <g id="Layer_x0020_1">
  <metadata id="CorelCorpID_0Corel-Layer"/>
  <g id="_1778407375936">
   <path class="fil0" d="M10.32 19.02c1.8,0 3.26,1.46 3.26,3.26 0,1.8 -1.46,3.26 -3.26,3.26 -1.8,0 -3.26,-1.46 -3.26,-3.26 0,-1.8 1.46,-3.26 3.26,-3.26zm0 1.09c1.2,0 2.17,0.97 2.17,2.17 0,1.2 -0.97,2.17 -2.17,2.17 -1.2,0 -2.17,-0.97 -2.17,-2.17 0,-1.2 0.97,-2.17 2.17,-2.17z"/>
   <path class="fil1" d="M30.22 10.17c-0.67,2.87 -3.24,5.01 -6.31,5.01 -3.58,0 -6.48,-2.9 -6.48,-6.48 0,-3.07 2.14,-5.64 5.01,-6.31 1.04,0.46 2.02,1.03 2.92,1.7 0.02,0.01 0.04,0.03 0.05,0.04 0.15,0.11 0.29,0.23 0.44,0.35 0.05,0.04 0.09,0.07 0.14,0.11 0.11,0.09 0.21,0.18 0.32,0.28 0.08,0.07 0.16,0.13 0.23,0.2 0.04,0.04 0.08,0.08 0.12,0.11 0.28,0.26 0.54,0.52 0.8,0.8 0.03,0.03 0.06,0.06 0.09,0.09 0.07,0.08 0.14,0.16 0.21,0.24 0.09,0.1 0.18,0.21 0.27,0.31 0.04,0.05 0.08,0.1 0.12,0.15 0.12,0.14 0.23,0.29 0.34,0.43 0.02,0.02 0.03,0.04 0.04,0.06 0.67,0.9 1.23,1.87 1.69,2.91z"/>
   <circle class="fil0" cx="23.82" cy="8.78" r="1.76"/>
   <path class="fil2" d="M10.32 24.45c1.2,0 2.17,-0.97 2.17,-2.17 0,-1.2 -0.97,-2.17 -2.17,-2.17 -1.2,0 -2.17,0.97 -2.17,2.17 0,1.2 0.97,2.17 2.17,2.17zm0 -3.26c0.6,0 1.09,0.49 1.09,1.09 0,0.6 -0.49,1.09 -1.09,1.09 -0.6,0 -1.09,-0.49 -1.09,-1.09 0,-0.6 0.49,-1.09 1.09,-1.09z"/>
   <path class="fil2" d="M23.91 6.52c-1.2,0 -2.17,0.97 -2.17,2.17 0,1.2 0.97,2.17 2.17,2.17 1.2,0 2.17,-0.97 2.17,-2.17 0,-1.2 -0.97,-2.17 -2.17,-2.17zm0 3.26c-0.6,0 -1.09,-0.49 -1.09,-1.09 0,-0.6 0.49,-1.09 1.09,-1.09 0.6,0 1.09,0.49 1.09,1.09 0,0.6 -0.49,1.09 -1.09,1.09z"/>
   <path class="fil2" d="M10.32 26.62c2.4,0 4.35,-1.95 4.35,-4.35 0,-2.4 -1.95,-4.35 -4.35,-4.35 -2.4,0 -4.35,1.95 -4.35,4.35 0,2.4 1.95,4.35 4.35,4.35zm0 -7.61c1.8,0 3.26,1.46 3.26,3.26 0,1.8 -1.46,3.26 -3.26,3.26 -1.8,0 -3.26,-1.46 -3.26,-3.26 0,-1.8 1.46,-3.26 3.26,-3.26z"/>
   <path class="fil2" d="M32.16 20.06c0.07,-0.28 0.12,-0.55 0.17,-0.83 0,-0.01 0.01,-0.03 0.01,-0.04 0,-0 0,-0.01 0,-0.01 0.17,-0.93 0.26,-1.89 0.26,-2.87 0,-2.24 -0.46,-4.38 -1.28,-6.32 -0,-0.01 -0,-0.02 -0.01,-0.03 -0.63,-1.49 -1.49,-2.87 -2.52,-4.1 -0.61,-0.73 -1.28,-1.4 -2,-2.01 -1.24,-1.05 -2.63,-1.92 -4.14,-2.55 -0.01,-0 -0.02,-0 -0.03,-0.01 -1.95,-0.82 -4.08,-1.28 -6.33,-1.28 -0.94,0 -1.87,0.09 -2.77,0.24 -0,0 -0,0 -0,0 -0.02,0 -0.03,0.01 -0.05,0.01 -0.22,0.04 -0.44,0.08 -0.66,0.13 -0.01,0 -0.02,0.01 -0.04,0.01 -0.87,0.19 -1.71,0.45 -2.52,0.78 -0.07,0.03 -0.15,0.06 -0.22,0.09 -0.12,0.05 -0.24,0.11 -0.36,0.16 -0.12,0.05 -0.23,0.1 -0.35,0.16 -0.09,0.05 -0.19,0.09 -0.28,0.14 -0.03,0.01 -0.05,0.03 -0.08,0.04 -0.01,0 -0.02,0 -0.02,0.01 -0.03,0.02 -0.06,0.03 -0.1,0.05 -0.08,0.04 -0.15,0.08 -0.23,0.12 -0.07,0.04 -0.13,0.07 -0.2,0.11 -0.08,0.04 -0.16,0.08 -0.23,0.13 -0.09,0.05 -0.18,0.11 -0.27,0.16 -0.05,0.03 -0.09,0.06 -0.14,0.08 -0.19,0.12 -0.38,0.24 -0.56,0.36 -0.02,0.01 -0.04,0.02 -0.06,0.04 -0.1,0.07 -0.19,0.13 -0.29,0.2 -0.01,0.01 -0.03,0.02 -0.04,0.03 -0.2,0.14 -0.4,0.29 -0.6,0.45 -0.01,0 -0.01,0.01 -0.02,0.01 -0,0 -0,0 -0,0 -0.89,0.7 -1.72,1.5 -2.45,2.38 -0.01,0.01 -0.01,0.03 -0.02,0.04 -2.34,2.82 -3.75,6.44 -3.75,10.38 0,1.63 0.24,3.2 0.69,4.68 0,0 -0,0.01 0,0.01 0.01,0.02 0.01,0.03 0.02,0.05 0.09,0.3 0.19,0.59 0.29,0.88 0.04,0.1 0.08,0.2 0.12,0.3 0.07,0.17 0.13,0.34 0.2,0.5 0.07,0.17 0.15,0.34 0.23,0.5 0.04,0.08 0.07,0.16 0.11,0.23 1.59,3.26 4.22,5.89 7.48,7.48 0.07,0.04 0.15,0.07 0.22,0.11 0.17,0.08 0.34,0.16 0.51,0.23 0.16,0.07 0.32,0.13 0.48,0.19 0.11,0.04 0.22,0.09 0.33,0.13 0.28,0.1 0.58,0.2 0.87,0.29 0.02,0.01 0.04,0.01 0.06,0.02 0.01,0 0.01,0 0.02,0 1.48,0.44 3.05,0.69 4.67,0.69 2.71,0 5.27,-0.67 7.53,-1.85 0.01,-0.01 0.03,-0.01 0.04,-0.02 0.04,-0.02 0.08,-0.04 0.12,-0.07 0.13,-0.07 0.26,-0.15 0.39,-0.22 0.12,-0.07 0.24,-0.14 0.36,-0.21 0.23,-0.14 0.45,-0.28 0.68,-0.43 0.1,-0.06 0.19,-0.13 0.28,-0.2 0.15,-0.1 0.3,-0.21 0.44,-0.32 0.08,-0.06 0.16,-0.13 0.24,-0.19 0.16,-0.13 0.32,-0.25 0.47,-0.39 0.06,-0.05 0.12,-0.1 0.17,-0.15 0.19,-0.17 0.37,-0.34 0.55,-0.51 0.02,-0.02 0.04,-0.04 0.06,-0.06 0.26,-0.25 0.52,-0.52 0.76,-0.79 0.01,-0.01 0.02,-0.01 0.03,-0.02 1.21,-1.34 2.17,-2.86 2.87,-4.51 0.03,-0.06 0.05,-0.12 0.07,-0.18 0.06,-0.14 0.12,-0.28 0.17,-0.43 0,-0.01 0,-0.01 0,-0.02 0.24,-0.63 0.43,-1.27 0.59,-1.93 0,-0.02 0.01,-0.04 0.01,-0.06zm-5.51 7.38c-0.14,0.13 -0.28,0.25 -0.42,0.37 -0.05,0.05 -0.11,0.09 -0.16,0.14 -0.11,0.09 -0.22,0.18 -0.34,0.27 -0.09,0.07 -0.17,0.14 -0.26,0.21 -0.09,0.07 -0.18,0.13 -0.26,0.19 -0.08,0.06 -0.17,0.12 -0.25,0.18 0.12,-0.52 0.07,-1.07 -0.15,-1.58 -0.35,-0.81 -1.09,-1.37 -1.96,-1.51l-0.57 -0.09 0 -0.97 0.54 -0.1c0.87,-0.17 1.58,-0.76 1.9,-1.58 0.32,-0.82 0.2,-1.74 -0.32,-2.45l-0.34 -0.46 0.68 -0.68 0.7 0.47c0.71,0.48 1.62,0.58 2.42,0.25 0.8,-0.33 1.37,-1.03 1.54,-1.88l0.16 -0.83 0.97 0 0.09 0.57c0.08,0.5 0.29,0.95 0.62,1.31 -0.13,0.67 -0.31,1.32 -0.53,1.96 -0.17,-0.03 -0.35,-0.04 -0.53,-0.04 -1.95,0 -3.53,1.58 -3.53,3.53 0,0.75 0.24,1.47 0.67,2.07 -0.19,0.2 -0.39,0.4 -0.59,0.59 -0.02,0.02 -0.04,0.04 -0.06,0.06zm3.42 -4.67c-0.54,1.14 -1.22,2.21 -2.02,3.18 -0.22,-0.37 -0.33,-0.79 -0.33,-1.23 0,-1.35 1.1,-2.44 2.44,-2.44 0.04,0 0.08,0 0.12,0 -0.06,0.14 -0.12,0.28 -0.19,0.42 -0.01,0.02 -0.02,0.04 -0.03,0.06zm-6.15 -7.55c-3.59,0 -6.52,-2.92 -6.52,-6.52 0,-3 2.09,-5.64 4.99,-6.34 1.06,0.46 2.05,1.04 2.97,1.72 0.02,0.01 0.04,0.03 0.05,0.04 0.15,0.11 0.29,0.23 0.44,0.35 0.05,0.04 0.09,0.07 0.14,0.11 0.11,0.09 0.21,0.18 0.32,0.28 0.08,0.07 0.16,0.13 0.23,0.2 0.04,0.04 0.08,0.08 0.12,0.11 0.28,0.26 0.54,0.52 0.8,0.8 0.03,0.03 0.06,0.06 0.09,0.1 0.07,0.08 0.14,0.16 0.21,0.24 0.09,0.1 0.18,0.2 0.27,0.31 0.04,0.05 0.08,0.1 0.12,0.15 0.12,0.14 0.23,0.29 0.34,0.43 0.02,0.02 0.03,0.04 0.04,0.06 0.68,0.92 1.26,1.91 1.72,2.97 -0.7,2.9 -3.33,4.99 -6.34,4.99zm-11.29 -13.67c-0.09,0.41 -0.05,0.83 0.1,1.23 0.27,0.69 0.87,1.19 1.6,1.33l0.34 0.07 0 0.59 -0.36 0.06c-0.73,0.11 -1.35,0.59 -1.65,1.27 -0.3,0.68 -0.23,1.46 0.19,2.07l0.2 0.29 -0.42 0.42 -0.1 -0.07c-0.61,-0.45 -1.4,-0.54 -2.1,-0.25 -0.7,0.29 -1.19,0.91 -1.31,1.67l-0.02 0.12 -0.59 0 -0.07 -0.34c-0.14,-0.73 -0.64,-1.33 -1.33,-1.6 -0.69,-0.27 -1.46,-0.17 -2.06,0.27l-0.3 0.22 -0.42 -0.42 0.2 -0.29c0.37,-0.54 0.46,-1.2 0.28,-1.82 0.05,-0.06 0.11,-0.13 0.16,-0.19 0.14,-0.15 0.28,-0.31 0.43,-0.45 0.15,-0.15 0.3,-0.3 0.46,-0.45 0.07,-0.07 0.15,-0.13 0.22,-0.2 0.31,1.16 1.36,2.01 2.61,2.01 1.5,0 2.72,-1.22 2.72,-2.72 0,-0.83 -0.38,-1.58 -0.98,-2.08 0.33,-0.14 0.67,-0.27 1.01,-0.38 0.04,-0.01 0.07,-0.02 0.11,-0.04 0.35,-0.12 0.71,-0.22 1.07,-0.31zm-5.55 2.68c0.04,-0.03 0.09,-0.07 0.13,-0.1 0.22,-0.16 0.44,-0.32 0.67,-0.47 0.11,-0.07 0.22,-0.15 0.33,-0.22 0.01,-0.01 0.03,-0.02 0.04,-0.03 0.23,-0.14 0.47,-0.28 0.7,-0.41 0.1,-0.06 0.21,-0.12 0.31,-0.17 0.64,0.23 1.07,0.83 1.07,1.52 0,0.9 -0.73,1.63 -1.63,1.63 -0.9,0 -1.63,-0.73 -1.63,-1.63 0,-0.04 0,-0.08 0.01,-0.12zm0.06 9.97c0.02,-0 0.03,-0 0.05,-0.01 0.02,-0.01 0.03,-0.02 0.05,-0.03 0.96,-0.36 2.01,-0.57 3.1,-0.57 4.79,0 8.69,3.9 8.69,8.69 0,1.25 -0.27,2.43 -0.74,3.5 -0,0.01 -0.01,0.02 -0.02,0.02 -0.01,0.01 -0,0.02 -0.01,0.04 -1.15,2.57 -3.51,4.49 -6.46,4.99 -0,-0 -0,-0 -0,-0 -0.27,-0.08 -0.53,-0.17 -0.79,-0.27 -0.12,-0.05 -0.24,-0.09 -0.36,-0.14 -0.12,-0.05 -0.25,-0.1 -0.37,-0.15 -0.16,-0.07 -0.32,-0.14 -0.48,-0.22 -0.06,-0.03 -0.12,-0.06 -0.17,-0.08 -3.03,-1.49 -5.49,-3.95 -6.98,-6.98 -0.03,-0.06 -0.06,-0.11 -0.08,-0.17 -0.08,-0.16 -0.15,-0.32 -0.22,-0.48 -0.05,-0.12 -0.1,-0.25 -0.15,-0.37 -0.05,-0.12 -0.1,-0.24 -0.14,-0.36 -0.1,-0.26 -0.19,-0.53 -0.27,-0.79 0,-0 -0,-0 -0,-0 0.53,-3.08 2.6,-5.53 5.36,-6.61zm6.85 17.15c2.21,-0.88 3.99,-2.52 5.05,-4.6l0.85 0.38c0.07,0.03 0.15,0.05 0.22,0.05 0.21,0 0.41,-0.12 0.5,-0.32 0.12,-0.27 -0,-0.6 -0.28,-0.72l-0.85 -0.38c0.41,-1.08 0.63,-2.25 0.63,-3.47 0,-1.06 -0.17,-2.08 -0.49,-3.03l0.68 -0.27c0.28,-0.11 0.42,-0.42 0.31,-0.7 -0.11,-0.28 -0.42,-0.42 -0.7,-0.31l-0.69 0.27c-0.91,-2 -2.48,-3.65 -4.44,-4.65l0.38 -0.87c0.12,-0.27 -0,-0.6 -0.28,-0.72 -0.27,-0.12 -0.59,0 -0.72,0.28l-0.38 0.87c-1.08,-0.41 -2.24,-0.65 -3.46,-0.65 -1.06,0 -2.08,0.17 -3.03,0.48l-0.26 -0.68c-0.11,-0.28 -0.42,-0.42 -0.7,-0.31 -0.28,0.11 -0.42,0.42 -0.31,0.7l0.26 0.68c-2.27,1.03 -4.07,2.89 -5.01,5.25 -0.12,-0.76 -0.18,-1.53 -0.18,-2.32 0,-2.77 0.75,-5.37 2.05,-7.61 0.03,0.07 0.06,0.15 0.12,0.2l1.06 1.06c0.19,0.19 0.49,0.21 0.71,0.05l0.67 -0.49c0.3,-0.22 0.68,-0.27 1.02,-0.13 0.35,0.14 0.59,0.43 0.66,0.8l0.15 0.78c0.05,0.26 0.27,0.44 0.53,0.44l1.5 0c0.27,0 0.5,-0.2 0.54,-0.46l0.09 -0.58c0.06,-0.37 0.3,-0.68 0.65,-0.83 0.35,-0.15 0.74,-0.1 1.04,0.13l0.47 0.35c0.22,0.16 0.52,0.14 0.71,-0.05l1.06 -1.06c0.18,-0.18 0.21,-0.47 0.07,-0.69l-0.45 -0.66c-0.21,-0.31 -0.24,-0.69 -0.09,-1.03 0.15,-0.34 0.45,-0.57 0.82,-0.63l0.82 -0.13c0.27,-0.04 0.46,-0.27 0.46,-0.54l0 -1.51c0,-0.26 -0.18,-0.48 -0.44,-0.53l-0.78 -0.15c-0.37,-0.07 -0.66,-0.31 -0.8,-0.66 -0.14,-0.35 -0.09,-0.72 0.13,-1.02l0.06 -0.08c0.77,-0.12 1.57,-0.19 2.37,-0.19 1.56,0 3.07,0.24 4.49,0.68 -0.68,0.31 -1.31,0.71 -1.86,1.19l-0.4 -0.4c-0.21,-0.21 -0.56,-0.21 -0.77,0 -0.21,0.21 -0.21,0.56 0,0.77l0.41 0.41c-1.05,1.22 -1.72,2.76 -1.84,4.43l-0.57 0c-0.3,0 -0.54,0.24 -0.54,0.54 0,0.3 0.24,0.54 0.54,0.54l0.57 0c0.12,1.69 0.79,3.22 1.84,4.43l-0.4 0.4c-0.21,0.21 -0.21,0.56 0,0.77 0.11,0.11 0.24,0.16 0.38,0.16 0.14,0 0.28,-0.05 0.38,-0.16l0.4 -0.4c1.21,1.05 2.74,1.72 4.43,1.84l0 0.57c0,0.3 0.24,0.54 0.54,0.54 0.3,0 0.54,-0.24 0.54,-0.54l0 -0.57c1.67,-0.12 3.21,-0.79 4.43,-1.84l0.41 0.41c0.11,0.11 0.25,0.16 0.38,0.16 0.14,0 0.28,-0.05 0.38,-0.16 0.21,-0.21 0.21,-0.56 0,-0.77l-0.4 -0.4c0.48,-0.55 0.88,-1.18 1.19,-1.86 0.44,1.42 0.68,2.93 0.68,4.49 0,0.14 -0.01,0.28 -0.01,0.42 -0.06,-0.24 -0.27,-0.42 -0.52,-0.42l-1.88 0c-0.26,0 -0.48,0.18 -0.53,0.44l-0.24 1.27c-0.1,0.5 -0.42,0.89 -0.88,1.08 -0.47,0.19 -0.97,0.14 -1.39,-0.14l-1.07 -0.72c-0.22,-0.15 -0.5,-0.12 -0.69,0.07l-1.33 1.33c-0.19,0.19 -0.21,0.49 -0.05,0.71l0.62 0.84c0.3,0.41 0.37,0.94 0.18,1.41 -0.19,0.47 -0.59,0.81 -1.09,0.91l-0.98 0.19c-0.26,0.05 -0.44,0.27 -0.44,0.53l0 1.88c0,0.27 0.2,0.5 0.46,0.54l1.03 0.16c0.5,0.08 0.92,0.4 1.13,0.87 0.2,0.47 0.15,1 -0.13,1.42l-0.56 0.82c-2.05,1.03 -4.37,1.62 -6.82,1.62 -0.79,0 -1.57,-0.06 -2.32,-0.18z"/>
  </g>
 </g>
</svg>
