<svg width="50" height="50" viewBox="0 0 50 50" version="1.1" xmlns="http://www.w3.org/2000/svg" xmlns:xlink="http://www.w3.org/1999/xlink">
<title>document</title>
<desc>Created using Figma</desc>
<g id="Canvas" transform="translate(-13661 -2310)">
<g id="document">
<g id="Group">
<g id="Vector">
<use xlink:href="#path0_fill" transform="translate(13661 2310)" fill="#219653"/>
</g>
<g id="Vector">
<use xlink:href="#path1_fill" transform="translate(13670.5 2325.94)" fill="#219653"/>
</g>
<g id="Vector">
<use xlink:href="#path2_fill" transform="translate(13670.5 2333.37)" fill="#219653"/>
</g>
<g id="Vector">
<use xlink:href="#path3_fill" transform="translate(13670.5 2340.79)" fill="#219653"/>
</g>
<g id="Vector">
<use xlink:href="#path4_fill" transform="translate(13670.5 2348.22)" fill="#219653"/>
</g>
<g id="Vector">
<use xlink:href="#path5_fill" transform="translate(13692.1 2346.08)" fill="#219653"/>
</g>
<g id="Vector">
<use xlink:href="#path6_fill" transform="translate(13687.6 2339.08)" fill="#219653"/>
</g>
</g>
</g>
</g>
<defs>
<path id="path0_fill" d="M 5.0023 46.3923C 4.30915 46.3923 3.74579 45.8888 3.74579 45.2702L 3.74579 10.7084C 3.74579 10.0898 4.30915 9.58657 5.0023 9.58657L 31.8768 9.58657C 32.57 9.58657 33.1335 10.0897 33.1335 10.7084L 33.1335 25.6518C 34.3279 25.2962 35.5805 25.0602 36.8792 24.9603L 36.8792 10.7084C 36.8792 8.24369 34.6352 6.23927 31.8768 6.23927L 10.7214 6.23927L 10.7214 4.46913C 10.7214 3.85043 11.2846 3.3473 11.9778 3.3473L 38.8525 3.3473C 39.5456 3.3473 40.1089 3.85043 40.1089 4.46913L 40.1089 24.9906C 41.411 25.1198 42.6624 25.3961 43.8546 25.7826L 43.8546 4.46913C 43.8546 2.00452 41.6108 0 38.8525 0L 11.9778 0C 9.21953 0 6.97558 2.00452 6.97558 4.46913L 6.97558 6.23927L 5.0023 6.23927C 2.24406 6.23927 8.62552e-08 8.24379 8.62552e-08 10.7084L 8.62552e-08 45.2702C 8.62552e-08 47.7349 2.24406 49.7396 5.0023 49.7396L 26.5583 49.7396C 25.4794 48.7484 24.5556 47.6237 23.822 46.3923L 5.0023 46.3923Z"/>
<path id="path1_fill" d="M 1.87233 3.3472L 12.6817 3.3472C 13.717 3.3472 14.5544 2.59777 14.5544 1.67365C 14.5544 0.749335 13.717 3.94646e-07 12.6817 3.94646e-07L 1.87233 3.94646e-07C 0.837523 3.94646e-07 -2.96718e-07 0.749436 -2.96718e-07 1.67365C -2.96718e-07 2.59777 0.837409 3.3472 1.87233 3.3472Z"/>
<path id="path2_fill" d="M 17.8812 1.67365C 17.8812 0.749435 17.0438 -1.23327e-07 16.0083 -1.23327e-07L 1.87233 -1.23327e-07C 0.837523 -1.23327e-07 -2.96718e-07 0.749435 -2.96718e-07 1.67365C -2.96718e-07 2.59797 0.837409 3.3473 1.87233 3.3473L 16.0083 3.3473C 17.0438 3.3473 17.8812 2.59797 17.8812 1.67365Z"/>
<path id="path3_fill" d="M 15.6813 1.40593e-06L 1.87233 1.40593e-06C 0.837523 1.40593e-06 -2.96718e-07 0.749333 -2.96718e-07 1.67355C -2.96718e-07 2.59777 0.837409 3.3472 1.87233 3.3472L 13.576 3.3472C 14.1117 2.14324 14.8252 1.02222 15.6813 1.40593e-06Z"/>
<path id="path4_fill" d="M 1.87233 0.00010209C 0.837523 0.00010209 -2.96718e-07 0.749538 -2.96718e-07 1.67365C -2.96718e-07 2.59787 0.837409 3.3473 1.87233 3.3473L 12.583 3.3473C 12.4804 2.68213 12.4075 2.00695 12.4075 1.31631C 12.4075 0.871782 12.4385 0.434528 12.4826 3.45315e-07L 1.87233 3.45315e-07L 1.87233 0.00010209Z"/>
<path id="path5_fill" d="M 7.18417 1.03595e-06C 3.96907 1.03595e-06 1.12277 2.38055 1.6009e-06 3.45753C 1.12277 4.534 3.96907 6.91364 7.18417 6.91364C 10.4123 6.91364 13.2506 4.5347 14.3683 3.45854C 13.2472 2.38227 10.4014 1.03595e-06 7.18417 1.03595e-06ZM 7.18417 5.96801C 5.63326 5.96801 4.37517 4.84375 4.37517 3.45753C 4.37517 2.07019 5.63326 0.94725 7.18417 0.94725C 8.73508 0.94725 9.99317 2.07009 9.99317 3.45753C 9.99317 4.84375 8.73508 5.96801 7.18417 5.96801Z"/>
<path id="path6_fill" d="M 11.7054 5.67303e-07C 5.24017 5.67303e-07 -1.54569e-06 4.68261 -1.54569e-06 10.46C -1.54569e-06 16.2361 5.24017 20.9201 11.7054 20.9201C 18.1707 20.9201 23.4107 16.2361 23.4107 10.46C 23.4107 4.68251 18.1707 5.67303e-07 11.7054 5.67303e-07ZM 11.7054 15.5894C 6.65394 15.5894 2.7068 11.1653 2.54061 10.9772C 2.27549 10.6733 2.27549 10.2468 2.54061 9.94371C 2.70691 9.75499 6.65405 5.32889 11.7054 5.32889C 16.7567 5.32889 20.7038 9.75489 20.8702 9.94371C 21.1353 10.2468 21.1353 10.6734 20.8702 10.9772C 20.7038 11.1654 16.7567 15.5894 11.7054 15.5894Z"/>
</defs>
</svg>
