<svg width="60" height="50" viewBox="0 0 60 50" version="1.1" xmlns="http://www.w3.org/2000/svg" xmlns:xlink="http://www.w3.org/1999/xlink">
<title>icon_mission</title>
<desc>Created using Figma</desc>
<g id="Canvas" transform="translate(-13252 -2310)">
<g id="icon_mission">
<g id="Vector">
<use xlink:href="#path0_fill" transform="translate(13252 2310)" fill="#219653"/>
</g>
</g>
</g>
<defs>
<path id="path0_fill" d="M 33.6138 13.7961L 28.992 16.7264C 27.2459 15.6987 25.2223 15.2788 23.224 15.5295C 21.2258 15.7802 19.3605 16.6881 17.9074 18.1172C 16.4544 19.5463 15.4919 21.4197 15.164 23.4569C 14.8361 25.494 15.1605 27.5853 16.0885 29.4176C 17.0166 31.2498 18.4984 32.7244 20.312 33.6206C 22.1257 34.5167 24.1736 34.7861 26.1491 34.3886C 28.1245 33.991 29.9213 32.9477 31.2702 31.4151C 32.6192 29.8824 33.4477 27.9428 33.6318 25.8867L 38.5657 23.0795C 38.6465 23.7205 38.6866 24.3662 38.6857 25.0125C 38.6865 28.3615 37.5723 31.6104 35.5276 34.2215C 33.4829 36.8326 30.6302 38.6494 27.4416 39.3712C 24.253 40.093 20.9197 39.6766 17.9933 38.1909C 15.0669 36.7052 12.7228 34.2392 11.349 31.201C 9.9752 28.1629 9.65398 24.7347 10.4385 21.4838C 11.2231 18.2329 13.0664 15.3542 15.6634 13.3241C 18.2603 11.294 21.4553 10.2341 24.7196 10.32C 27.9838 10.4058 31.1217 11.6322 33.6138 13.7961ZM 41.1167 6.86431L 38.0375 10.9951L 37.4373 11.3829C 34.37 8.29654 30.3557 6.39409 26.0761 5.99858C 21.7965 5.60308 17.5153 6.73889 13.9595 9.21316C 10.4037 11.6874 7.7924 15.3477 6.56905 19.5723C 5.34571 23.797 5.5857 28.3257 7.24829 32.3895C 8.91087 36.4533 11.8936 39.8017 15.6899 41.8661C 19.4862 43.9306 23.8622 44.5838 28.0748 43.7149C 32.2875 42.846 36.077 40.5085 38.8001 37.0994C 41.5231 33.6903 43.0118 29.4196 43.0134 25.0125C 43.014 23.6003 42.8631 22.1924 42.5632 20.8141L 43.4576 20.3031L 48.3495 20.4816C 49.3981 26.3341 48.3769 32.3783 45.4696 37.5277C 42.5623 42.6772 37.9594 46.5942 32.4884 48.5747C 27.0173 50.5552 21.0369 50.4693 15.6221 48.3324C 10.2073 46.1956 5.7132 42.1479 2.94759 36.917C 0.181987 31.6861 -0.67374 25.615 0.534224 19.7949C 1.74219 13.9748 4.93463 8.78751 9.5377 5.16536C 14.1408 1.5432 19.8526 -0.276257 25.6465 0.0340325C 31.4405 0.344322 36.9365 2.76401 41.1467 6.85815L 41.1167 6.86431ZM 27.1973 21.6882L 41.0026 13.4267L 44.568 7.33218L 54.6699 1.23762L 52.8692 8.55109L 60 11.0135L 49.8981 17.1081L 42.7913 17.1081L 28.6679 24.9387C 28.6679 24.9387 28.6679 24.9879 28.6679 25.0187C 28.6655 26.0252 28.3273 27.0006 27.7095 27.7827C 27.0918 28.5648 26.2316 29.1065 25.272 29.3177C 24.3125 29.5289 23.3114 29.397 22.4351 28.9437C 21.5588 28.4905 20.8602 27.7433 20.4553 26.8264C 20.0504 25.9095 19.9638 24.8781 20.2096 23.9037C 20.4555 22.9292 21.0192 22.0705 21.8069 21.4701C 22.5947 20.8698 23.559 20.564 24.5396 20.6037C 25.5203 20.6434 26.4581 21.0261 27.1973 21.6882Z"/>
</defs>
</svg>
