<svg width="50" height="50" viewBox="0 0 50 50" version="1.1" xmlns="http://www.w3.org/2000/svg" xmlns:xlink="http://www.w3.org/1999/xlink">
<title>142d51d6b7a24dac2259ecdee7169815</title>
<desc>Created using Figma</desc>
<g id="Canvas" transform="translate(-14060 -2310)">
<g id="142d51d6b7a24dac2259ecdee7169815">
<g id="Group">
<g id="Vector">
<use xlink:href="#path0_fill" transform="translate(14077.2 2310)" fill="#219653"/>
</g>
<g id="Vector">
<use xlink:href="#path1_fill" transform="translate(14060 2325.36)" fill="#219653"/>
</g>
</g>
</g>
</g>
<defs>
<path id="path0_fill" d="M 9.80974 34.6327C 6.3993 34.6378 2.98346 33.3776 0.405361 30.9388L 0 30.5561L 5.84261 25.0357L 6.25337 25.4235C 7.25327 26.3674 8.5234 26.8265 9.80974 26.8316C 11.1555 26.8265 12.4419 26.3725 13.4472 25.4235L 23.0245 16.3878C 24.019 15.4388 24.5108 14.2245 24.5163 12.9847C 24.5108 11.7449 24.0298 10.5408 23.0245 9.59185L 22.6138 9.2092C 21.6139 8.26532 20.3275 7.80103 19.0196 7.79593C 17.7008 7.80103 16.4252 8.26022 15.4145 9.2092L 11.4852 12.9235C 9.8746 14.4439 7.25326 14.4439 5.64263 12.9235C 4.03199 11.4031 4.03199 8.93369 5.64263 7.40818L 9.57734 3.68879C 12.1716 1.23981 15.6145 -0.00508642 19.0196 1.56189e-05C 22.4192 -0.00508642 25.8621 1.23981 28.4618 3.68879L 28.8671 4.07654C 31.4614 6.52042 32.7856 9.76532 32.7802 12.9847C 32.7856 16.1939 31.4723 19.4439 28.8671 21.9031L 19.2844 30.9388C 16.6739 33.4082 13.2148 34.6327 9.83136 34.6327C 9.82596 34.6327 9.82055 34.6327 9.80974 34.6327Z"/>
<path id="path1_fill" d="M 13.7283 34.6378C 10.3178 34.6378 6.90197 33.3827 4.31847 30.9439L 3.9131 30.5612C 1.30798 28.1021 -0.00538812 24.847 1.66959e-05 21.6327C -0.00538812 18.4184 1.31879 15.1735 3.9131 12.7347L 13.4904 3.6939C 16.0902 1.23982 19.5276 -0.00507639 22.9381 2.56536e-05C 25.6026 -0.00507639 28.2942 0.760229 30.5859 2.27043C 30.9588 2.45411 31.3155 2.6888 31.6344 2.98982L 32.3749 3.6939L 32.7856 4.07655L 26.9484 9.59186L 26.943 9.59186L 26.5377 9.20921C 25.5324 8.26533 24.2514 7.80104 22.9435 7.80104C 21.6193 7.80104 20.3438 8.26023 19.3439 9.20921L 9.76112 18.25C 8.76123 19.199 8.2802 20.4031 8.26939 21.6378C 8.2802 22.8929 8.76123 24.1021 9.76112 25.0459L 10.1665 25.4337C 11.1718 26.3776 12.4473 26.8368 13.7337 26.8419C 15.0795 26.8368 16.3658 26.3776 17.3711 25.4337L 21.5004 21.5408C 23.111 20.0204 25.7269 20.0204 27.343 21.5408C 28.9536 23.0612 28.9536 25.5306 27.343 27.0561L 23.2137 30.949C 20.5978 33.4133 17.1387 34.6378 13.7499 34.6378C 13.7445 34.6378 13.7337 34.6378 13.7283 34.6378Z"/>
</defs>
</svg>
