<?xml version="1.0" encoding="UTF-8"?>
<!DOCTYPE svg PUBLIC "-//W3C//DTD SVG 1.1//EN" "http://www.w3.org/Graphics/SVG/1.1/DTD/svg11.dtd">
<!-- Creator: CorelDRAW 2017 -->
<svg xmlns="http://www.w3.org/2000/svg" xml:space="preserve" width="0.322in" height="0.266748in" version="1.1" style="shape-rendering:geometricPrecision; text-rendering:geometricPrecision; image-rendering:optimizeQuality; fill-rule:evenodd; clip-rule:evenodd"
viewBox="0 0 37.22 30.84"
 xmlns:xlink="http://www.w3.org/1999/xlink">
 <defs>
  <style type="text/css">
   <![CDATA[
    .fil0 {fill:black}
    .fil2 {fill:#6ED3FF}
    .fil1 {fill:#FFCA12}
   ]]>
  </style>
 </defs>
 <g id="Layer_x0020_1">
  <metadata id="CorelCorpID_0Corel-Layer"/>
  <path class="fil0" d="M34.48 0l-17.4 0c-1.51,0 -2.74,1.24 -2.74,2.76l0 5.24 -11.59 0c-1.51,0 -2.75,1.24 -2.75,2.76l0 11.21c0,1.52 1.23,2.76 2.75,2.76l2 0 0 6.08 7.51 -6.08 7.89 0c1.51,0 2.74,-1.24 2.74,-2.76l0 -5.24 2.08 0 7.51 6.08 0 -6.08 2 0c1.51,0 2.74,-1.24 2.74,-2.77l0 -11.21c0,-1.52 -1.23,-2.76 -2.74,-2.76zm-13.92 21.99c0,0.24 -0.19,0.44 -0.42,0.44l-8.72 0 -4.36 3.53 0 -3.53 -4.33 0c-0.23,0 -0.42,-0.2 -0.42,-0.44l0 -11.21c0,-0.24 0.19,-0.44 0.42,-0.44l11.59 0 0 3.64c0,1.53 1.23,2.77 2.74,2.77l3.48 0 0 5.24 0 0zm14.33 -8.01c0,0.24 -0.19,0.44 -0.42,0.44l-4.33 0 0 3.53 -4.36 -3.53 -8.72 0c-0.23,0 -0.42,-0.2 -0.42,-0.44l0 -11.21c0,-0.24 0.19,-0.44 0.42,-0.44l17.4 0c0.23,0 0.42,0.2 0.42,0.44l0 11.21z"/>
  <path class="fil1" d="M34.9 13.98c0,0.24 -0.19,0.44 -0.42,0.44l-4.33 0 0 3.53 -4.36 -3.53 -8.72 0c-0.23,0 -0.42,-0.2 -0.42,-0.44l0 -11.21c0,-0.24 0.19,-0.44 0.42,-0.44l17.4 0c0.23,0 0.42,0.2 0.42,0.44l0 11.21z"/>
  <path class="fil2" d="M20.56 21.99c0,0.24 -0.19,0.44 -0.42,0.44l-8.72 0 -4.36 3.53 0 -3.53 -4.33 0c-0.23,0 -0.42,-0.2 -0.42,-0.44l0 -11.21c0,-0.24 0.19,-0.44 0.42,-0.44l11.59 0 0 3.64c0,1.53 1.23,2.77 2.74,2.77l3.48 0 0 5.24 0 0z"/>
 </g>
</svg>
