<?xml version="1.0" encoding="iso-8859-1"?>
<!-- Generator: Adobe Illustrator 19.1.0, SVG Export Plug-In . SVG Version: 6.00 Build 0)  -->
<svg version="1.1" id="Capa_1" xmlns="http://www.w3.org/2000/svg" xmlns:xlink="http://www.w3.org/1999/xlink" x="0px" y="0px"
	 viewBox="0 0 217.229 217.229" style="enable-background:new 0 0 217.229 217.229;" xml:space="preserve">
<g>
	<g id="group-155svg">
		<path id="path-1_62_" style="fill:#FF3A2F;" d="M69.158,176.979H49.125c-3.862,0-6.993,2.371-6.993,5.293
			c0,2.925,3.131,5.294,6.993,5.294h0.933c3.862,0,6.993,2.37,6.993,5.293c0,2.922-3.131,5.293-6.993,5.293H6.994
			c-3.863,0-6.994,2.37-6.994,5.293c0,2.923,3.131,5.294,6.994,5.294h51.751h105.78c3.862,0,6.994-2.371,6.994-5.294
			c0-2.923-3.132-5.293-6.994-5.293h-11.952c-3.863,0-6.993-2.371-6.993-5.293c0-2.923,3.13-5.293,6.993-5.293h46.94
			c3.863,0,6.994-2.369,6.994-5.294c0-2.922-3.131-5.293-6.994-5.293h-3.503H69.158z"/>
		<path id="path-2_62_" style="fill:#FF3A2F;" d="M193.398,210.156c-3.238,0-5.863-2.541-5.863-5.674
			c0-3.132,2.625-5.672,5.863-5.672h17.968c3.238,0,5.863,2.54,5.863,5.672c0,3.133-2.625,5.674-5.863,5.674H193.398z"/>
		<path id="path-3_62_" style="fill:#FBB713;" d="M80.025,62.827c0,0-1.6-17.084,4.911-32.481
			c-9.222,1.535-16.97,7.199-21.138,14.956c-4.804-3.274-10.65-5.217-16.983-5.217c-16.271,0-35.95,12.726-35.95,28.433
			c0,0,0.675,80.065,22.247,108.373c0,0,16.045,22.671,35.866-1.834c6.199,8.122,16.788,9.173,18.145,9.173l3.43,0.011
			c1.36,0,11.946-1.045,18.148-9.172c19.821,24.509,35.871,1.833,35.871,1.833c21.573-28.308,22.291-108.384,22.291-108.384
			c0-15.707-19.676-28.433-35.95-28.433c-5.636,0-10.887,1.551-15.362,4.199c-2.443-4.134-5.93-7.604-10.112-10.107
			c-1.329,1.369-2.466,2.863-3.435,4.431c-6.789,10.976-5.433,25.546-5.433,25.546l0,0"/>
		<path id="path-4_62_" style="opacity:0.35;enable-background:new    ;" d="M94.455,164.383
			c-6.203,8.129-16.788,9.173-18.148,9.173l-3.431-0.011c-1.356,0-11.945-1.05-18.144-9.173
			c-8.629,10.667-16.54,12.392-22.724,10.942c0.366,0.528,0.724,1.078,1.104,1.577c0,0,16.045,22.671,35.866-1.834
			c6.199,8.122,16.788,9.173,18.145,9.173l3.43,0.011c1.36,0,11.935-1.045,18.138-9.161
			C104.327,173.812,99.515,170.641,94.455,164.383z"/>
		<path id="path-5_61_" style="opacity:0.35;enable-background:new    ;" d="M147.205,43.872c3.334,4.125,5.412,8.882,5.412,13.961
			c0,0-0.719,80.076-22.291,108.383c0,0-8.892,12.547-21.609,8.871c19.813,24.478,35.855,1.815,35.855,1.815
			c21.573-28.308,22.291-108.384,22.291-108.384C166.863,57.964,157.97,48.777,147.205,43.872z"/>
		<path id="path-6_59_" style="opacity:0.35;enable-background:new    ;" d="M65.765,42.191c-0.356,5.907,0.014,9.952,0.014,9.952
			l14.211,1.139c0.35-6.299,1.522-14.838,4.946-22.936C77.003,31.666,70.176,36.055,65.765,42.191z"/>
		<path id="path-7_58_" style="fill:#0CB04A;" d="M89.067,75.817c-0.135,0-0.273-0.007-0.41-0.024
			c-1.478-0.17-2.702-1.225-3.087-2.661c-2.765-10.331-17.83-9.232-17.986-9.216c-1.945,0.17-3.737-1.32-3.903-3.313
			c-0.163-1.994,1.322-3.741,3.316-3.903c0.721-0.06,15.497-1.13,22.604,8.358c7.392-8.371,17.228-8.371,20.835-8.371
			c2.001,0,3.62,1.622,3.62,3.62c0,2.001-1.619,3.622-3.62,3.622c-3.85,0-12.873,0-18.174,9.967
			C91.63,75.086,90.396,75.817,89.067,75.817z"/>
		<path id="path-8_44_" style="fill:#0CB04A;" d="M111.854,7.327c-14.565,3.156-22.557,12.71-26.918,23.019
			c-5.07,11.992-5.222,25.004-5.04,30.176c0.056,1.595,0.78,3.081,2.049,4.05c2.33,1.78,6.555,3.988,11.385,1.744
			c1.927-0.895,3.145-2.85,3.131-4.976c-0.035-5.703,0.845-18.796,8.978-27.163c2.019-2.078,4.481-3.869,7.495-5.18
			C131.808,20.781,121.563,4.879,111.854,7.327z"/>
		<path id="path-9_37_" style="fill:#EDEDED;" d="M24.885,100.063c-2.002,0-3.621-1.62-3.621-3.619V80.615
			c-2.231-13.518,8.121-21.422,13.955-23.724c1.87-0.732,3.963,0.178,4.699,2.041c0.732,1.853-0.177,3.952-2.03,4.689
			c-0.501,0.206-11.455,4.8-9.44,16.047l0.057,0.639v16.137C28.505,98.443,26.885,100.063,24.885,100.063z"/>
	</g>
</g>
<g>
</g>
<g>
</g>
<g>
</g>
<g>
</g>
<g>
</g>
<g>
</g>
<g>
</g>
<g>
</g>
<g>
</g>
<g>
</g>
<g>
</g>
<g>
</g>
<g>
</g>
<g>
</g>
<g>
</g>
</svg>
