<?xml version="1.0" encoding="UTF-8"?>
<!DOCTYPE svg PUBLIC "-//W3C//DTD SVG 1.1//EN" "http://www.w3.org/Graphics/SVG/1.1/DTD/svg11.dtd">
<!-- Creator: CorelDRAW 2017 -->
<svg xmlns="http://www.w3.org/2000/svg" xml:space="preserve" width="0.362583in" height="0.324244in" version="1.1" style="shape-rendering:geometricPrecision; text-rendering:geometricPrecision; image-rendering:optimizeQuality; fill-rule:evenodd; clip-rule:evenodd"
viewBox="0 0 28.23 25.24"
 xmlns:xlink="http://www.w3.org/1999/xlink">
 <defs>
  <style type="text/css">
   <![CDATA[
    .fil2 {fill:black}
    .fil0 {fill:#6ED3FF}
    .fil1 {fill:#FFCA12}
   ]]>
  </style>
 </defs>
 <g id="Layer_x0020_1">
  <metadata id="CorelCorpID_0Corel-Layer"/>
  <g id="_1778407351648">
   <path class="fil0" d="M25.42 13.16l2.08 0 0 -1.07 -2.08 -0c0.01,0.18 0.01,0.36 0.01,0.54 0,0.18 -0,0.36 -0.01,0.54z"/>
   <path class="fil0" d="M16.82 13.16l5.65 0c0.01,-0.18 0.02,-0.36 0.02,-0.54 0,-0.18 -0.01,-0.36 -0.02,-0.54l-5.65 -0.01c0.04,0.18 0.06,0.36 0.06,0.55 0,0.18 -0.02,0.36 -0.05,0.54z"/>
   <path class="fil0" d="M12.21 13.16l3.87 0c0.05,-0.17 0.07,-0.35 0.07,-0.54 0,-0.19 -0.03,-0.38 -0.08,-0.55l-3.86 -0.01c-0.05,0.18 -0.08,0.37 -0.08,0.56 0,0.19 0.03,0.37 0.07,0.54z"/>
   <path class="fil0" d="M5.82 13.16l5.65 0c-0.03,-0.17 -0.05,-0.35 -0.05,-0.54 0,-0.19 0.02,-0.38 0.06,-0.56l-5.65 -0.01c-0.01,0.19 -0.02,0.38 -0.02,0.57 0,0.18 0.01,0.36 0.02,0.54z"/>
   <polygon class="fil0" points="0.76,12.04 0.72,13.16 2.8,13.16 2.8,13.15 2.8,13.15 2.8,13.14 2.8,13.14 2.8,13.13 2.8,13.13 2.8,13.13 2.8,13.13 2.8,13.12 2.8,13.12 2.8,13.11 2.8,13.11 2.8,13.1 2.8,13.1 2.8,13.09 2.8,13.09 2.8,13.08 2.8,13.08 2.8,13.07 2.8,13.07 2.8,13.06 2.8,13.06 2.8,13.05 2.8,13.05 2.8,13.05 2.8,13.05 2.8,13.04 2.8,13.04 2.8,13.03 2.8,13.03 2.8,13.02 2.8,13.02 2.8,13.01 2.8,13.01 2.8,13 2.8,13 2.8,12.99 2.79,12.99 2.79,12.98 2.79,12.98 2.79,12.97 2.79,12.97 2.79,12.96 2.79,12.96 2.79,12.96 2.79,12.95 2.79,12.95 2.79,12.95 2.79,12.94 2.79,12.94 2.79,12.93 2.79,12.93 2.79,12.92 2.79,12.92 2.79,12.91 2.79,12.91 2.79,12.9 2.79,12.9 2.79,12.89 2.79,12.89 2.79,12.88 2.79,12.88 2.79,12.87 2.79,12.87 2.79,12.87 2.79,12.87 2.79,12.86 2.79,12.86 2.79,12.85 2.79,12.85 2.79,12.84 2.79,12.84 2.79,12.83 2.79,12.83 2.79,12.82 2.79,12.82 2.79,12.81 2.79,12.81 2.79,12.8 2.79,12.8 2.79,12.79 2.79,12.79 2.79,12.78 2.79,12.78 2.79,12.78 2.79,12.78 2.79,12.77 2.79,12.77 2.79,12.76 2.79,12.76 2.79,12.75 2.79,12.75 2.79,12.74 2.79,12.74 2.79,12.73 2.79,12.73 2.79,12.72 2.79,12.72 2.79,12.71 2.79,12.71 2.79,12.7 2.79,12.7 2.79,12.69 2.79,12.69 2.79,12.68 2.79,12.68 2.79,12.68 2.79,12.68 2.79,12.67 2.79,12.67 2.79,12.66 2.79,12.66 2.79,12.65 2.79,12.65 2.79,12.64 2.79,12.64 2.79,12.63 2.79,12.63 2.79,12.62 2.79,12.62 2.79,12.61 2.79,12.61 2.79,12.6 2.79,12.6 2.79,12.59 2.79,12.59 2.79,12.58 2.79,12.58 2.79,12.58 2.79,12.58 2.79,12.57 2.79,12.57 2.79,12.56 2.79,12.56 2.79,12.55 2.79,12.55 2.79,12.54 2.79,12.54 2.79,12.53 2.79,12.53 2.79,12.52 2.79,12.52 2.79,12.51 2.79,12.51 2.79,12.5 2.79,12.5 2.79,12.49 2.79,12.49 2.79,12.49 2.79,12.49 2.79,12.48 2.79,12.48 2.79,12.47 2.79,12.47 2.79,12.46 2.79,12.46 2.79,12.45 2.79,12.45 2.79,12.44 2.79,12.44 2.79,12.43 2.79,12.43 2.79,12.42 2.79,12.42 2.79,12.41 2.79,12.41 2.79,12.4 2.79,12.4 2.79,12.4 2.79,12.4 2.79,12.39 2.79,12.39 2.79,12.38 2.79,12.38 2.79,12.37 2.79,12.37 2.79,12.36 2.79,12.36 2.79,12.35 2.79,12.35 2.79,12.34 2.79,12.34 2.79,12.33 2.79,12.33 2.79,12.32 2.79,12.32 2.79,12.31 2.79,12.31 2.79,12.31 2.79,12.3 2.79,12.3 2.79,12.3 2.79,12.29 2.79,12.29 2.79,12.28 2.79,12.28 2.79,12.27 2.79,12.27 2.79,12.26 2.79,12.26 2.79,12.25 2.79,12.25 2.8,12.24 2.8,12.24 2.8,12.23 2.8,12.23 2.8,12.22 2.8,12.22 2.8,12.22 2.8,12.22 2.8,12.21 2.8,12.21 2.8,12.2 2.8,12.2 2.8,12.19 2.8,12.19 2.8,12.18 2.8,12.18 2.8,12.17 2.8,12.17 2.8,12.16 2.8,12.16 2.8,12.15 2.8,12.15 2.8,12.14 2.8,12.14 2.8,12.13 2.8,12.13 2.8,12.13 2.8,12.13 2.8,12.12 2.8,12.12 2.8,12.11 2.8,12.11 2.8,12.1 2.8,12.1 2.8,12.09 2.8,12.09 2.8,12.08 2.8,12.08 2.8,12.07 2.8,12.07 2.8,12.06 2.8,12.06 2.8,12.05 2.8,12.05 2.8,12.05 "/>
   <path class="fil0" d="M18.76 19.57l-2.82 -4.89c-0.28,0.24 -0.6,0.43 -0.96,0.54l2.83 4.9c0.33,-0.16 0.65,-0.34 0.95,-0.55z"/>
   <polygon class="fil0" points="19.26,22.73 20.27,24.5 21.27,23.92 20.25,22.15 20.14,22.22 20.13,22.23 20.11,22.24 20.1,22.25 20.08,22.26 20.07,22.27 20.05,22.28 19.9,22.37 19.88,22.38 19.87,22.39 19.85,22.4 19.84,22.41 19.82,22.42 19.81,22.43 19.79,22.44 19.77,22.44 19.76,22.45 19.7,22.49 19.68,22.5 19.67,22.51 19.65,22.52 19.63,22.52 19.56,22.57 19.54,22.58 19.52,22.59 19.51,22.59 19.49,22.6 19.48,22.61 19.46,22.62 19.44,22.63 19.43,22.64 19.3,22.7 19.28,22.71 19.27,22.72 "/>
   <path class="fil0" d="M12.68 11.25l1.91 3.33c0.38,-0.09 0.71,-0.28 0.98,-0.54l-1.93 -3.35c-0.37,0.1 -0.7,0.3 -0.95,0.57z"/>
   <path class="fil0" d="M9.5 5.69l2.81 4.91c0.27,-0.25 0.6,-0.44 0.95,-0.56l-2.82 -4.89c-0.33,0.16 -0.64,0.35 -0.94,0.55z"/>
   <path class="fil0" d="M6.97 1.27l1.03 1.81 0.22 -0.14 0 0 0.18 -0.11 0 -0 0.05 -0.03 0 0 0.05 -0.03 0 0 0.11 -0.06 0 0c0.11,-0.06 0.22,-0.12 0.33,-0.18l-1.04 -1.8 -0.93 0.54z"/>
   <circle class="fil1" cx="14.11" cy="12.62" r="2.2"/>
   <path class="fil2" d="M21 3.24l0.9 -1.55c0.1,-0.18 0.13,-0.38 0.08,-0.58 -0.05,-0.2 -0.18,-0.36 -0.36,-0.46l-0.93 -0.54c-0.18,-0.1 -0.38,-0.13 -0.58,-0.08 -0.2,0.05 -0.36,0.18 -0.46,0.36l-1.05 1.82c-1.38,-0.6 -2.9,-0.93 -4.5,-0.94l-0.02 -0 -0 0 -0.08 0 -0.07 0c-1.52,0.03 -2.97,0.36 -4.29,0.93l0 -0 -0.02 -0.03 -1.03 -1.79c-0.1,-0.18 -0.27,-0.3 -0.46,-0.36 -0.2,-0.05 -0.4,-0.03 -0.58,0.08l-0.93 0.54c-0.18,0.1 -0.3,0.27 -0.36,0.46 -0.05,0.2 -0.03,0.4 0.08,0.58l0.9 1.55 0.13 0.23c-0.21,0.16 -0.42,0.32 -0.63,0.49l0.08 0c-2.15,1.82 -3.61,4.42 -3.95,7.36l-2.1 0c-0.42,0 -0.76,0.34 -0.76,0.76l0 1.07c0,0.42 0.34,0.76 0.76,0.76l2.03 0 0 0 0.07 0c0.34,2.94 1.8,5.54 3.95,7.36l-0.08 0c0.2,0.17 0.41,0.34 0.63,0.5l-0.14 0.23 -0.9 1.55c-0.21,0.36 -0.09,0.83 0.28,1.04l0.93 0.54c0.12,0.07 0.25,0.1 0.38,0.1 0.07,0 0.13,-0.01 0.2,-0.03 0.2,-0.05 0.36,-0.18 0.46,-0.36l1.03 -1.79 0 0 0.02 -0.03c1.32,0.57 2.76,0.9 4.28,0.93l0.16 0 0 0c1.61,0 3.14,-0.33 4.52,-0.94l0 0 1.05 1.82c0.1,0.18 0.27,0.3 0.46,0.36 0.07,0.02 0.13,0.03 0.2,0.03 0.13,0 0.26,-0.03 0.38,-0.1l0.93 -0.54c0.37,-0.21 0.49,-0.68 0.28,-1.04l-0.9 -1.55 -0.16 -0.27 0.01 -0.01c2.45,-1.83 4.14,-4.62 4.5,-7.81l0.01 0 2.1 0c0.42,0 0.76,-0.34 0.76,-0.76l0 -1.07c0,-0.42 -0.34,-0.76 -0.76,-0.76l-2.1 0 -0.01 -0c-0.37,-3.19 -2.06,-5.99 -4.51,-7.81l0.16 -0.27zm-12.05 -0.75l0.02 0.03c-0.12,0.06 -0.24,0.13 -0.37,0.2l0 0 -0.11 0.06 0 0 -0.05 0.03 0 0 -0.05 0.03 0 0 -0.19 0.11 0 0c-0.08,0.05 -0.16,0.1 -0.24,0.15l-0.02 -0.04 -1 -1.73c-0.01,-0.01 -0.01,-0.02 -0,-0.03 0,-0.01 0.01,-0.02 0.02,-0.02l0.93 -0.54c0.01,-0.01 0.02,-0.01 0.03,-0 0.01,0 0.02,0.01 0.02,0.02l1 1.74zm-6.22 9.56l0 0 0.07 0 -0 0.01 0 0 -0 0.01 0 0 -0 0.01 0 0 -0 0.01 0 0 -0 0.01 0 0 -0 0.01 0 0 -0 0.01 0 0 -0 0.01 0 0 -0 0.01 0 0 -0 0.01 0 0 -0 0.01 0 0 -0 0.01 0 0 -0 0.01 0 0 -0 0.01 0 0 -0 0.01 0 0 -0 0.01 0 0 -0 0.01 0 0 -0 0.01 0 0 0 0.01 0 0 -0 0.01 0 0 -0 0.01 0 0 -0 0.01 0 0 -0 0.01 0 0 -0 0.01 0 0 -0 0.01 0 0 0 0.01 0 0 -0 0.01 0 0 -0 0.01 0 0 -0 0.01 0 0 -0 0.01 0 0 -0 0.01 0 0 -0 0.01 0 0 0 0.01 0 0 -0 0.01 0 0 -0 0.01 0 0 0 0.01 0 0 -0 0.01 0 0 -0 0.01 0 0 0 0.01 0 0 -0 0.01 0 0 -0 0.01 0 0 0 0.01 0 0 -0 0.01 0 0 0 0.01 0 0 -0 0.01 0 0 0 0.01 0 0 0 0.01 0 0 -0 0.01 0 0 0 0.01 0 0 -0 0.01 0 0 0 0.01 0 0 0 0.01 0 0 -0 0.01 0 0 0 0.01 0 0 0 0.01 0 0 0 0.01 0 0 0 0.01 0 0 -0 0.01 0 0 0 0.01 0 0 0 0.01 0 0 0 0.01 0 0 0 0.01 0 0 0 0.01 0 0 0 0.01 0 0 0 0.01 0 0 0 0.01 0 0 0 0.01 0 0 0 0.01 0 0 0 0.01 0 0 0 0.01 0 0 0 0.01 0 0 0 0.01 0 0 0 0.01 0 0 0 0.01 0 0 0 0.01 0 0 0 0.01 0 0 0 0.01 0 0 0 0.01 0 0 0 0.01 0 0 0 0.01 0 0 0 0.01 0 0 0 0.01 0 0 0 0.01 0 0 0 0.01 0 0 0 0.01 0 0 0 0.01 0 0 0 0.01 0 0 0 0.01 0 0 0 0.01 0 0 0 0.01 0 0 0 0.01 0 0 0 0.01 0 0 0 0.01 0 0 0 0.01 0 0 0 0.01 0 0 0 0.01 0 0 0 0.01 0 0 0 0.01 0 0 0 0.01 0 0 0 0.01 0 0 0 0.01 0 0 0 0.01 0 0 0 0.01 0 0 0 0.01 0 0 0 0.01 0 0 0 0.01 0 0 0 0.01 0 0 0 0.01 0 0 0 0.01 0 0 0 0.01 0 0 0 0.01 0 0 0 0.01 0 0 0 0.01 0 0 0 0.01 0 0 0 0.01 0 0 0 0.01 0 0 0 0.01 0 0 0 0.01 0 0 0 0.01 0 0 0 0.01 0 0 0 0.01 0 0 0 0.01 0 0 0 0.01 0 0 0 0.01 0 0 0 0.01 0 0 0 0.01 0 0 0 0.01 0 0 0 0.01 -2.04 0c-0.02,0 -0.04,-0.02 -0.04,-0.04l0 -1.07c0,-0.02 0.02,-0.04 0.04,-0.04l1.97 0zm5.22 10.14l0 0 0.02 -0.04 0.02 0.01 0 0 0.01 0.01 0 0 0.02 0.01 0 0 0.01 0.01 0 0 0.02 0.01 0 0 0.01 0.01 0 0 0.02 0.01 0 0 0.01 0.01 0 0 0.02 0.01 0 0 0.01 0.01 0 0 0.02 0.01 0 0 0.02 0.01 0 0 0.02 0.01 0 0 0.02 0.01 0 0 0.02 0.01 0 0 0.02 0.01 0 0 0.02 0.01 0 0 0.02 0.01 0 0 0.03 0.02 0 0 0.02 0.01 0 0 0.03 0.02 0 0 0.02 0.01 0 0 0.02 0.01 0 0 0.02 0.01 0 0 0.02 0.01 0 0 0.02 0.01 0 0 0.02 0.01 0 0 0.02 0.01 0 0 0.02 0.01 0 0 0.02 0.01 0 0 0.02 0.01 0 0 0.02 0.01 0 0 0.03 0.02 0 0 0.02 0.01 0 0 0.02 0.01 0 0 0.05 0.03 0 0 0.02 0.01 0 0 0.02 0.01 0 0 0.02 0.01 0 0 0.02 0.01 0 0 0.03 0.02 0 0 0.02 0.01 0 0 0.02 0.01 0 0 0.02 0.01 0 0 0.02 0.01 0 0 0.05 0.03 0 0 0.03 0.02 0 0 0.13 0.07 -1.02 1.77c-0.01,0.01 -0.01,0.02 -0.02,0.02 -0.01,0 -0.02,0 -0.03,-0l-0.93 -0.54c-0.02,-0.01 -0.03,-0.04 -0.01,-0.05l1 -1.73zm6.19 -18.64c-5,0 -9.07,4.07 -9.07,9.07 0,5 4.07,9.07 9.07,9.07 5,0 9.07,-4.07 9.07,-9.07 0,-5 -4.07,-9.07 -9.07,-9.07zm3.66 16.56l-2.83 -4.9c0.37,-0.12 0.71,-0.32 1,-0.58l2.83 4.89c-0.32,0.21 -0.65,0.41 -1,0.58zm-8.32 -0.58l2.83 -4.89c0.28,0.26 0.62,0.46 1,0.58l-2.83 4.9c-0.35,-0.17 -0.68,-0.36 -1,-0.58zm-3.68 -6.92c0,-0.19 0.01,-0.39 0.02,-0.58l5.65 0c-0.04,0.19 -0.06,0.38 -0.06,0.58 0,0.2 0.02,0.39 0.06,0.58l-5.65 0c-0.01,-0.19 -0.02,-0.38 -0.02,-0.58zm4.68 -7.5l2.83 4.9c-0.37,0.12 -0.71,0.32 -1,0.58l-2.83 -4.89c0.32,-0.21 0.65,-0.41 1,-0.58zm8.32 0.58l-2.83 4.89c-0.28,-0.26 -0.62,-0.46 -1,-0.58l2.83 -4.9c0.35,0.17 0.68,0.36 1,0.58zm-4.66 8.93c-1.11,0 -2.01,-0.9 -2.01,-2.01 0,-1.11 0.9,-2.01 2.01,-2.01 1.11,0 2.01,0.9 2.01,2.01 0,1.11 -0.9,2.01 -2.01,2.01zm2.67 -2.58l5.65 0c0.01,0.19 0.02,0.38 0.02,0.58 0,0.19 -0.01,0.39 -0.02,0.58l-5.65 0c0.04,-0.19 0.06,-0.38 0.06,-0.58 0,-0.2 -0.02,-0.39 -0.06,-0.58zm5.57 -0.72l-5.84 0c-0.02,-0.04 -0.05,-0.09 -0.07,-0.13l2.92 -5.05c1.57,1.27 2.67,3.1 3,5.18zm-5.25 -6.49l-2.92 5.06c-0.02,-0 -0.05,-0 -0.07,-0 -0.03,0 -0.05,0 -0.07,0l-2.92 -5.06c0.93,-0.36 1.94,-0.56 2.99,-0.56 1.05,0 2.06,0.2 2.99,0.56zm-8.24 1.3l2.92 5.05c-0.03,0.04 -0.05,0.08 -0.07,0.13l-5.84 0c0.33,-2.08 1.43,-3.91 3,-5.18zm-3 7.78l5.84 0c0.02,0.04 0.05,0.09 0.07,0.13l-2.92 5.05c-1.57,-1.27 -2.67,-3.1 -3,-5.18zm5.25 6.49l2.92 -5.06c0.02,0 0.05,0 0.07,0 0.02,0 0.05,-0 0.07,-0l2.92 5.06c-0.93,0.36 -1.94,0.56 -2.99,0.56 -1.05,0 -2.06,-0.2 -2.99,-0.56zm8.24 -1.3l-2.92 -5.05c0.03,-0.04 0.05,-0.08 0.07,-0.13l5.84 0c-0.33,2.08 -1.43,3.91 -3,5.18zm-0.14 3.63l0.02 -0.01 0.02 -0.01 0.02 -0.01 0.13 -0.07 0.02 -0.01 0.02 -0.01 0.02 -0.01 0.02 -0.01 0.02 -0.01 0.02 -0.01 0.02 -0.01 0.02 -0.01 0.08 -0.04 0.02 -0.01 0.02 -0.01 0.02 -0.01 0.02 -0.01 0.06 -0.04 0.02 -0.01 0.02 -0.01 0.02 -0.01 0.02 -0.01 0.02 -0.01 0.02 -0.01 0.02 -0.01 0.02 -0.01 0.02 -0.01 0.15 -0.09 0.02 -0.01 0.02 -0.01 0.02 -0.01 0.02 -0.01 0.02 -0.01 0.02 -0.01 0.11 -0.07 1.02 1.77c0.01,0.02 0,0.04 -0.01,0.05l-0.93 0.54c-0.01,0.01 -0.02,0.01 -0.03,0 -0.01,-0 -0.02,-0.01 -0.02,-0.02l-1.02 -1.77zm1 -19.64l-0.08 -0.05 -0.02 -0.01 -0.02 -0.01 -0.02 -0.01 -0.02 -0.01 -0.02 -0.01 -0.02 -0.01 -0.02 -0.01 -0.02 -0.01 -0.02 -0.01 -0.02 -0.01 -0.02 -0.01 -0.05 -0.03 -0.02 -0.01 -0.02 -0.01 -0.02 -0.01 -0.02 -0.01 -0.02 -0.01 -0.06 -0.04 -0.02 -0.01 -0.02 -0.01 -0.02 -0.01 -0.02 -0.01 -0.04 -0.03 -0 -0 -0.02 -0.01 -0.02 -0.01c-0.06,-0.03 -0.11,-0.06 -0.17,-0.1l-0.01 -0.01 -0 -0c-0.07,-0.04 -0.15,-0.08 -0.22,-0.12l-0.01 -0.01 -0 -0 1.02 -1.77c0.01,-0.01 0.01,-0.02 0.02,-0.02 0.01,-0 0.02,-0 0.03,0l0.93 0.54c0.01,0.01 0.02,0.01 0.02,0.02 0,0.01 0,0.02 -0,0.03l-1.02 1.77zm-16.74 9.53c0,-5.86 4.77,-10.63 10.63,-10.63 5.86,0 10.63,4.77 10.63,10.63 0,5.86 -4.77,10.63 -10.63,10.63 -5.86,0 -10.63,-4.77 -10.63,-10.63zm21.91 -0.58l2.04 0c0.02,0 0.04,0.02 0.04,0.04l0 1.07c0,0.02 -0.02,0.04 -0.04,0.04l-2.04 0c0.01,-0.19 0.01,-0.38 0.01,-0.58 0,-0.19 -0.01,-0.39 -0.01,-0.58z"/>
  </g>
 </g>
</svg>
