<?xml version="1.0" encoding="UTF-8"?>
<!DOCTYPE svg PUBLIC "-//W3C//DTD SVG 1.1//EN" "http://www.w3.org/Graphics/SVG/1.1/DTD/svg11.dtd">
<!-- Creator: CorelDRAW 2017 -->
<svg xmlns="http://www.w3.org/2000/svg" xml:space="preserve" width="0.11476in" height="0.125543in" version="1.1" style="shape-rendering:geometricPrecision; text-rendering:geometricPrecision; image-rendering:optimizeQuality; fill-rule:evenodd; clip-rule:evenodd"
viewBox="0 0 1.48 1.62"
 xmlns:xlink="http://www.w3.org/1999/xlink">
 <defs>
  <style type="text/css">
   <![CDATA[
    .fil0 {fill:silver}
   ]]>
  </style>
 </defs>
 <g id="Layer_x0020_1">
  <metadata id="CorelCorpID_0Corel-Layer"/>
  <path class="fil0" d="M1.48 1.56l0 -1.06c0,-0.02 -0.01,-0.03 -0.02,-0.04l-0.48 -0.45c-0.01,-0.01 -0.03,-0.02 -0.04,-0.02l-0.74 0c-0.03,0 -0.06,0.03 -0.06,0.06l0 0.67c0,0.03 0.03,0.06 0.06,0.06 0.03,0 0.06,-0.03 0.06,-0.06l0 -0.61 0.61 0 0 0.46c0,0.03 0.03,0.06 0.06,0.06l0.43 0c0,0 0.01,0 0.01,-0l0 0.87 -1.1 0 0 -0.24c0,-0.03 -0.03,-0.06 -0.06,-0.06 -0.03,0 -0.06,0.03 -0.06,0.06l0 0.3c0,0.03 0.03,0.06 0.06,0.06l1.22 0c0.03,0 0.06,-0.03 0.06,-0.06zm-1.48 -0.58c0,0.03 0.03,0.06 0.06,0.06l0.62 0 -0.19 0.17c-0.02,0.02 -0.03,0.06 -0,0.08 0.01,0.01 0.03,0.02 0.04,0.02 0.01,0 0.03,-0 0.04,-0.01l0.31 -0.28c0.01,-0.01 0.02,-0.03 0.02,-0.04 0,-0.02 -0.01,-0.03 -0.02,-0.04l-0.31 -0.28c-0.02,-0.02 -0.06,-0.02 -0.08,0 -0.02,0.02 -0.02,0.06 0,0.08l0.2 0.17 -0.62 0c-0.03,0 -0.06,0.03 -0.06,0.06zm0.99 -0.8l0.36 0.34 -0.36 0 0 -0.34z"/>
 </g>
</svg>
