<?xml version="1.0" encoding="UTF-8"?>
<!DOCTYPE svg PUBLIC "-//W3C//DTD SVG 1.1//EN" "http://www.w3.org/Graphics/SVG/1.1/DTD/svg11.dtd">
<!-- Creator: CorelDRAW 2017 -->
<svg xmlns="http://www.w3.org/2000/svg" xml:space="preserve" width="0.294193in" height="0.258343in" version="1.1" style="shape-rendering:geometricPrecision; text-rendering:geometricPrecision; image-rendering:optimizeQuality; fill-rule:evenodd; clip-rule:evenodd"
viewBox="0 0 30.76 27.02"
 xmlns:xlink="http://www.w3.org/1999/xlink">
 <defs>
  <style type="text/css">
   <![CDATA[
    .fil0 {fill:#010002}
    .fil2 {fill:#6ED3FF}
    .fil1 {fill:#FFCA12}
   ]]>
  </style>
 </defs>
 <g id="Layer_x0020_1">
  <metadata id="CorelCorpID_0Corel-Layer"/>
  <g id="_1778407413584">
   <g>
    <path class="fil0" d="M29.89 19.75l-18.55 0c-0.31,0 -0.6,-0.17 -0.76,-0.44l-10.46 -17.99c-0.24,-0.42 -0.1,-0.96 0.32,-1.2 0.42,-0.25 0.96,-0.1 1.2,0.32l10.21 17.55 18.04 0c0.49,0 0.88,0.39 0.88,0.88 0,0.49 -0.39,0.88 -0.88,0.88z"/>
   </g>
   <g>
    <path class="fil0" d="M15.38 27.02c-1.64,0 -2.98,-1.34 -2.98,-2.98 0,-1.64 1.34,-2.98 2.98,-2.98 1.64,0 2.98,1.34 2.98,2.98 0,1.64 -1.34,2.98 -2.98,2.98zm0 -4.2c-0.67,0 -1.22,0.55 -1.22,1.22 0,0.67 0.55,1.22 1.22,1.22 0.67,0 1.22,-0.55 1.22,-1.22 0,-0.67 -0.55,-1.22 -1.22,-1.22z"/>
   </g>
   <g>
    <path class="fil0" d="M27.44 27.02c-1.64,0 -2.98,-1.34 -2.98,-2.98 0,-1.64 1.34,-2.98 2.98,-2.98 1.64,0 2.98,1.34 2.98,2.98 0,1.64 -1.34,2.98 -2.98,2.98zm0 -4.2c-0.67,0 -1.22,0.55 -1.22,1.22 0,0.67 0.55,1.22 1.22,1.22 0.67,0 1.22,-0.55 1.22,-1.22 0,-0.67 -0.55,-1.22 -1.22,-1.22z"/>
   </g>
   <g>
    <path class="fil1" d="M29.89 16.12l-17.16 0c-0.49,0 -0.88,-0.39 -0.88,-0.88 0,-0.49 0.39,-0.88 0.88,-0.88l17.16 0c0.49,0 0.88,0.39 0.88,0.88 0,0.48 -0.39,0.88 -0.88,0.88z"/>
   </g>
   <g>
    <path class="fil2" d="M29.89 12.51l-18.99 0c-0.49,0 -0.88,-0.39 -0.88,-0.88 0,-0.48 0.39,-0.88 0.88,-0.88l18.99 0c0.49,0 0.88,0.39 0.88,0.88 0,0.48 -0.39,0.88 -0.88,0.88z"/>
   </g>
   <g>
    <path class="fil1" d="M29.89 8.91l-20.77 0c-0.49,0 -0.88,-0.39 -0.88,-0.88 0,-0.49 0.39,-0.88 0.88,-0.88l20.77 0c0.49,0 0.88,0.39 0.88,0.88 0,0.48 -0.39,0.88 -0.88,0.88z"/>
   </g>
  </g>
 </g>
</svg>
