<?xml version="1.0" encoding="UTF-8"?>
<!DOCTYPE svg PUBLIC "-//W3C//DTD SVG 1.1//EN" "http://www.w3.org/Graphics/SVG/1.1/DTD/svg11.dtd">
<!-- Creator: CorelDRAW 2017 -->
<svg xmlns="http://www.w3.org/2000/svg" xml:space="preserve" width="0.141551in" height="0.144283in" version="1.1" style="shape-rendering:geometricPrecision; text-rendering:geometricPrecision; image-rendering:optimizeQuality; fill-rule:evenodd; clip-rule:evenodd"
viewBox="0 0 126.04 128.47"
 xmlns:xlink="http://www.w3.org/1999/xlink">
 <defs>
  <style type="text/css">
   <![CDATA[
    .fil0 {fill:#EDEDED}
   ]]>
  </style>
 </defs>
 <g id="Layer_x0020_1">
  <metadata id="CorelCorpID_0Corel-Layer"/>
  <path class="fil0" d="M100.98 79.6c-20.99,50.02 -92.28,21.66 -75.27,-28.05 17.46,-51.05 96.04,-21.43 75.27,28.05zm-51.5 -63.02l-25.96 -4.07c-0.23,30.56 2.63,21.77 -21.27,31.48 1.27,12.82 4.49,10.06 10.03,20.78l-12.29 21.86 22.9 8.13 0.94 22.93 25.97 -3.56c7.52,12.61 11.85,20.11 22.5,8.8l7.37 -8.83 23.24 4.84 1.44 -23.45c8.75,-4.4 14.81,-5.45 21.06,-8.71 -0.27,-9.05 -6.16,-11.73 -10.31,-22 5.13,-10.53 9.01,-10.76 10.92,-20.78l-21.23 -7.47 -1.05 -23.24 -24.07 3.09 -14.34 -16.36c-8.56,3.16 -11.24,8.32 -15.87,16.58z"/>
 </g>
</svg>
